<svg width="60" height="60" viewBox="0 0 60 60" fill="none" xmlns="http://www.w3.org/2000/svg">
<path fill-rule="evenodd" clip-rule="evenodd" d="M38.9885 33.2013H47.7938V30.8595H38.9885V33.2013ZM27.0587 39.1368L30.0554 33.2183H27.0587L33.2914 26.031L30.9836 31.4556L33.8108 31.3874L27.0587 39.1368ZM21.4033 33.2013H18.1758V36.4288H15.834V33.2013H12.598V30.8595H15.834V27.632H18.1758V30.8595H21.4033V33.2013ZM8.19531 49.9178H52.1198V21.7476H8.19531V49.9178Z" fill="#D16527"/>
<path fill-rule="evenodd" clip-rule="evenodd" d="M6 20.0019H53.8171V16.6382H6V20.0019Z" fill="#D16527"/>
<path fill-rule="evenodd" clip-rule="evenodd" d="M17.004 12.5547V15.4671H11.8945V12.5547C11.8945 11.1411 13.0356 10 14.4493 10C15.1561 10 15.7863 10.281 16.2546 10.7494C16.7145 11.2092 17.004 11.8479 17.004 12.5547Z" fill="#D16527"/>
<path fill-rule="evenodd" clip-rule="evenodd" d="M47.797 12.5547V15.4671H42.6875V12.5547C42.6875 11.1411 43.8286 10 45.2422 10C45.9491 10 46.5877 10.281 47.0476 10.7494C47.516 11.2092 47.797 11.8479 47.797 12.5547Z" fill="#D16527"/>
</svg>
