<svg width="60" height="60" viewBox="0 0 60 60" fill="none" xmlns="http://www.w3.org/2000/svg">
<path fill-rule="evenodd" clip-rule="evenodd" d="M23.0797 20.7462C23.5226 20.7462 23.9747 20.9157 24.3069 21.2572L29.6292 26.5796L31.128 25.0808L24.2217 18.1745C25.7375 15.1258 25.5672 11.3703 23.4808 8.38981C21.4362 5.48592 18.0895 4.05527 14.7939 4.3448L19.1974 10.6201C19.8011 11.4896 19.5883 12.6733 18.7282 13.2779L13.9687 16.6246C13.1001 17.2284 11.9155 17.0248 11.3117 16.1554L6.89971 9.87156C5.51248 12.8862 5.71686 16.5216 7.75129 19.4254C10.1706 22.8667 14.4285 24.2377 18.2683 23.1392L25.6694 30.5394L27.1758 29.0406L21.8535 23.7183C21.173 23.0361 21.173 21.9385 21.8535 21.2572C22.1864 20.9157 22.6369 20.7462 23.0797 20.7462ZM53.1831 40.6383C50.8242 37.2073 46.6438 35.7851 42.8372 36.79L35.7351 29.6878L34.2354 31.1866L39.0051 35.9546C39.6855 36.6367 39.6855 37.7344 39.0051 38.4165C38.6645 38.7572 38.2217 38.9275 37.7695 38.9275C37.3267 38.9275 36.8847 38.7572 36.5432 38.4165L31.7752 33.6392L30.2764 35.1465L36.7646 41.6347C35.173 44.6833 35.2744 48.4822 37.3531 51.5138C39.3628 54.4433 42.701 55.8986 46.0051 55.6525L41.6612 49.3253C41.066 48.4558 41.2874 47.2815 42.1551 46.676L46.9504 43.3812C47.819 42.7851 49.0027 43.0065 49.6065 43.8666L53.941 50.1939C55.3631 47.2048 55.1937 43.5592 53.1831 40.6383Z" fill="#D16527"/>
<path fill-rule="evenodd" clip-rule="evenodd" d="M28.5962 38.7569C28.2734 39.0797 27.748 39.0797 27.4253 38.7569L22.0552 33.3869C21.7316 33.0633 21.7316 32.5395 22.0552 32.2159L22.343 31.9281C22.6649 31.6053 23.1904 31.6053 23.514 31.9281L28.884 37.299C29.2068 37.6218 29.2068 38.1472 28.884 38.4699L28.5962 38.7569Z" fill="#D16527"/>
<path fill-rule="evenodd" clip-rule="evenodd" d="M26.2128 39.9495L14.4771 52.7487L13.0303 54.3242C12.579 54.7755 12.0672 55.1153 11.5051 55.3367C11.0793 55.5164 10.645 55.6177 10.203 55.6526C10.0583 55.6697 9.91351 55.6782 9.76023 55.6782C8.57653 55.6858 7.39198 55.2354 6.48931 54.3318C4.67544 52.5188 4.67544 49.5885 6.48931 47.784L20.8555 34.6016L26.2128 39.9495Z" fill="#D16527"/>
<path fill-rule="evenodd" clip-rule="evenodd" d="M50.2503 12.6043L48.02 16.1137L46.0443 16.9568L28.3221 34.6858L26.125 32.4887L43.8549 14.7597L44.698 12.7925L48.2073 10.5605L48.3938 10.7487L45.8059 12.9118C45.3537 13.3631 45.5581 14.3339 46.0103 14.7938C46.4778 15.2536 47.4741 15.5253 47.9348 15.0663L50.0553 12.4093L50.2503 12.6043Z" fill="#D16527"/>
</svg>
