<svg width="60" height="60" viewBox="0 0 60 60" fill="none" xmlns="http://www.w3.org/2000/svg">
<path fill-rule="evenodd" clip-rule="evenodd" d="M30.4576 37.3052H30.4661V39.1446H29.4102L30.4576 37.3052Z" fill="#D16527"/>
<path fill-rule="evenodd" clip-rule="evenodd" d="M40.2419 22.9467C40.1652 23.117 40.0545 23.2617 39.9183 23.381C39.782 23.4917 39.6202 23.5853 39.4244 23.645C39.237 23.7046 39.0241 23.7386 38.7857 23.7386C38.6664 23.7386 38.5472 23.7301 38.4365 23.7139C38.3258 23.6961 38.2236 23.6799 38.1385 23.6535C38.0448 23.6364 37.9767 23.6109 37.9171 23.5853C37.8574 23.5598 37.8234 23.5428 37.8064 23.5257C37.7893 23.5087 37.7723 23.4917 37.7638 23.4746C37.7553 23.4576 37.7553 23.4321 37.7467 23.4065C37.7382 23.381 37.7382 23.3469 37.7382 23.3128C37.7382 23.2703 37.7297 23.2277 37.7297 23.1774C37.7297 23.117 37.7382 23.0659 37.7382 23.0233C37.7467 22.9892 37.7467 22.9552 37.7638 22.9305C37.7723 22.9041 37.7808 22.887 37.7893 22.8785C37.8064 22.87 37.8149 22.8624 37.8319 22.8624C37.8574 22.8624 37.8915 22.87 37.9341 22.8964C37.9682 22.9211 38.0278 22.9467 38.0959 22.9722C38.164 23.0063 38.2492 23.0318 38.3514 23.0574C38.445 23.0752 38.5643 23.0914 38.7005 23.0914C38.8197 23.0914 38.9304 23.0752 39.0326 23.0488C39.1263 23.0233 39.2115 22.9892 39.2796 22.9305C39.3477 22.8785 39.3988 22.8104 39.4329 22.7252C39.4754 22.6495 39.4925 22.5464 39.4925 22.4366C39.4925 22.3335 39.4754 22.2484 39.4414 22.1632C39.4158 22.0866 39.3647 22.027 39.2966 21.9673C39.237 21.9162 39.1518 21.8822 39.0411 21.8481C38.939 21.8226 38.8112 21.8141 38.6579 21.8141C38.5387 21.8141 38.428 21.8141 38.3343 21.8319C38.2321 21.8396 38.147 21.8481 38.0618 21.8481C38.0022 21.8481 37.9511 21.8319 37.9341 21.8055C37.9 21.7715 37.8915 21.7204 37.8915 21.6352V19.898C37.8915 19.8214 37.9085 19.7617 37.9426 19.7277C37.9682 19.6851 38.0192 19.6689 38.0959 19.6689H39.9864C40.0034 19.6689 40.0205 19.6766 40.0375 19.6851C40.0545 19.703 40.0716 19.7192 40.0801 19.7447C40.0886 19.7788 40.0971 19.8128 40.1056 19.8554C40.1056 19.898 40.1141 19.9499 40.1141 20.0172C40.1141 20.1364 40.0971 20.2301 40.0801 20.2812C40.0545 20.3417 40.029 20.3664 39.9864 20.3664H38.5643V21.218C38.6324 21.2094 38.709 21.2094 38.7772 21.2094C38.8538 21.2009 38.9219 21.2009 39.0071 21.2009C39.22 21.2009 39.4073 21.2273 39.5776 21.2776C39.748 21.3287 39.8842 21.4062 40.0034 21.499C40.1141 21.6012 40.1993 21.7204 40.2589 21.866C40.3185 22.0108 40.3526 22.1802 40.3526 22.3676C40.3526 22.589 40.3185 22.7763 40.2419 22.9467ZM31.147 23.415C31.0107 23.5172 30.8489 23.6032 30.6616 23.6535C30.4742 23.7139 30.2613 23.7386 30.0399 23.7386C29.9037 23.7386 29.7759 23.7301 29.6567 23.7046C29.5375 23.6875 29.4353 23.662 29.3416 23.6364C29.248 23.6109 29.1713 23.5768 29.1117 23.5428C29.0521 23.5172 29.0095 23.4917 28.9925 23.4746C28.9755 23.4576 28.9584 23.4406 28.9499 23.4235C28.9414 23.398 28.9329 23.3724 28.9329 23.3469C28.9244 23.3222 28.9159 23.2881 28.9159 23.2447C28.9073 23.2021 28.9073 23.151 28.9073 23.0914C28.9073 22.9892 28.9159 22.9211 28.9329 22.887C28.9499 22.8445 28.9755 22.8283 29.0095 22.8283C29.0266 22.8283 29.0606 22.8445 29.1117 22.87C29.1628 22.8964 29.2309 22.9305 29.3076 22.9552C29.3842 22.9892 29.4779 23.0233 29.5801 23.0488C29.6908 23.0752 29.81 23.0914 29.9377 23.0914C30.057 23.0914 30.1506 23.0752 30.2358 23.0488C30.3295 23.0233 30.3976 22.9807 30.4572 22.9381C30.5168 22.887 30.5679 22.8283 30.5935 22.7593C30.6275 22.6912 30.6446 22.6154 30.6446 22.5294C30.6446 22.4366 30.619 22.3506 30.5849 22.2824C30.5509 22.2058 30.4998 22.1462 30.4231 22.0866C30.355 22.0355 30.2699 21.9929 30.1592 21.9673C30.0485 21.9418 29.9207 21.9248 29.7759 21.9248H29.4268C29.4013 21.9248 29.3842 21.9248 29.3587 21.9162C29.3416 21.9077 29.3246 21.8907 29.3161 21.8737C29.3076 21.8481 29.2991 21.8141 29.2905 21.7715C29.282 21.7374 29.282 21.6872 29.282 21.619C29.282 21.5586 29.282 21.5075 29.2905 21.4743C29.2991 21.4308 29.3076 21.4062 29.3161 21.3883C29.3246 21.3627 29.3416 21.3457 29.3587 21.3457C29.3757 21.338 29.3927 21.3287 29.4183 21.3287H29.7674C29.8867 21.3287 29.9974 21.3116 30.091 21.2861C30.1847 21.2614 30.2613 21.218 30.321 21.1669C30.3806 21.1158 30.4317 21.0562 30.4657 20.9804C30.4998 20.9122 30.5168 20.8262 30.5168 20.7411C30.5168 20.6729 30.4998 20.6048 30.4828 20.5452C30.4572 20.4864 30.4231 20.4345 30.3806 20.3919C30.338 20.3417 30.2784 20.3076 30.2103 20.2812C30.1421 20.2557 30.057 20.2472 29.9633 20.2472C29.8526 20.2472 29.7504 20.2642 29.6567 20.2897C29.5631 20.3238 29.4779 20.3579 29.4013 20.4004C29.3331 20.4345 29.265 20.4686 29.2139 20.5026C29.1628 20.5367 29.1202 20.5546 29.0947 20.5546C29.0777 20.5546 29.0691 20.5546 29.0521 20.5452C29.0436 20.5367 29.0351 20.5205 29.0266 20.5026C29.018 20.4771 29.0095 20.4515 29.001 20.4098V20.1364C29.001 20.1024 29.0095 20.0683 29.0095 20.0513C29.018 20.0257 29.0266 20.0087 29.0351 19.9917C29.0436 19.9746 29.0606 19.9576 29.0777 19.9321C29.1032 19.9159 29.1458 19.8895 29.2054 19.8478C29.2735 19.8043 29.3502 19.7711 29.4523 19.7371C29.546 19.6936 29.6567 19.6689 29.7845 19.6425C29.9122 19.6085 30.0485 19.5999 30.1932 19.5999C30.3891 19.5999 30.5594 19.6255 30.7127 19.6689C30.8575 19.7107 30.9852 19.7788 31.0874 19.8639C31.1896 19.9499 31.2662 20.0513 31.3173 20.179C31.3684 20.3076 31.394 20.443 31.394 20.5963C31.394 20.724 31.3854 20.8356 31.3514 20.9369C31.3173 21.0485 31.2747 21.1413 31.2151 21.218C31.1555 21.3031 31.0789 21.3721 30.9937 21.4308C30.9 21.4905 30.7978 21.533 30.6786 21.5586V21.5671C30.8234 21.585 30.9426 21.619 31.0618 21.6778C31.1725 21.7289 31.2662 21.7979 31.3429 21.8822C31.4195 21.9673 31.4791 22.061 31.5217 22.1632C31.5558 22.2654 31.5813 22.3761 31.5813 22.4953C31.5813 22.6997 31.5387 22.87 31.4621 23.0233C31.3854 23.1851 31.2832 23.3128 31.147 23.415ZM31.5983 39.1446C31.6324 39.1446 31.6665 39.1693 31.6835 39.2212C31.709 39.2629 31.7261 39.3481 31.7261 39.4682C31.7261 39.5704 31.709 39.6547 31.692 39.7058C31.6665 39.7654 31.6409 39.7909 31.5983 39.7909H31.2492V40.5148C31.2492 40.5326 31.2407 40.5488 31.2236 40.5667C31.2151 40.5829 31.1896 40.5914 31.164 40.6084C31.13 40.6169 31.0959 40.6255 31.0448 40.6255C30.9937 40.6348 30.9256 40.6348 30.8489 40.6348C30.7808 40.6348 30.7127 40.6348 30.6616 40.6255C30.6105 40.6255 30.5764 40.6169 30.5424 40.6084C30.5168 40.5914 30.4913 40.5829 30.4828 40.5667C30.4742 40.5488 30.4657 40.5326 30.4657 40.5148V39.7909H28.9329C28.9073 39.7909 28.8818 39.7833 28.8562 39.7833C28.8392 39.7739 28.8137 39.7569 28.8051 39.7313C28.7881 39.7058 28.7796 39.6632 28.7711 39.6206C28.7626 39.5704 28.7541 39.5022 28.7541 39.4247C28.7541 39.3575 28.7626 39.3055 28.7626 39.2553C28.7626 39.2033 28.7711 39.1607 28.7796 39.1267C28.7881 39.0841 28.7966 39.05 28.8051 39.0083C28.8222 38.9734 28.8392 38.9393 28.8562 38.8976L30.0995 36.7082C30.1081 36.6912 30.1251 36.6741 30.1506 36.6665C30.1762 36.6486 30.2103 36.6401 30.2528 36.6316C30.3039 36.623 30.355 36.6145 30.4231 36.606H30.9426C31.0193 36.6145 31.0703 36.623 31.1214 36.6316C31.164 36.6486 31.1981 36.6571 31.2151 36.6741C31.2321 36.6912 31.2492 36.7082 31.2492 36.7346V39.1446H31.5983ZM20.4426 23.6705C20.4256 23.6705 20.4086 23.662 20.4 23.6535C20.383 23.645 20.366 23.6279 20.3575 23.6032C20.349 23.5768 20.3404 23.5428 20.3319 23.5087C20.3234 23.467 20.3234 23.415 20.3234 23.3563C20.3234 23.2958 20.3234 23.2447 20.3319 23.2106C20.3319 23.1681 20.3404 23.134 20.3575 23.1093C20.366 23.0829 20.3745 23.0659 20.3915 23.0574C20.4086 23.0488 20.4256 23.0412 20.4426 23.0412H21.1835V20.443L20.5448 20.7922C20.4937 20.8177 20.4597 20.8356 20.4256 20.8356C20.4 20.8433 20.3745 20.8356 20.3575 20.8177C20.3404 20.8015 20.3319 20.7675 20.3234 20.724C20.3149 20.6815 20.3149 20.6227 20.3149 20.5452V20.426C20.3149 20.3919 20.3234 20.3664 20.3319 20.3417C20.3404 20.3153 20.349 20.2982 20.366 20.2812C20.383 20.2735 20.4 20.2557 20.4256 20.2386L21.2857 19.6851C21.2942 19.6766 21.3027 19.6689 21.3198 19.6596C21.3368 19.6596 21.3538 19.651 21.3794 19.651C21.4049 19.651 21.439 19.6425 21.4816 19.6425H21.6348C21.7115 19.6425 21.7796 19.6425 21.8222 19.651C21.8733 19.651 21.9073 19.6596 21.9329 19.6596C21.9584 19.6689 21.9755 19.6766 21.984 19.6936C21.9925 19.703 21.9925 19.7192 21.9925 19.7371V23.0412H22.6482C22.6653 23.0412 22.6823 23.0488 22.6993 23.0574C22.7163 23.0659 22.7249 23.0829 22.7419 23.1093C22.7504 23.134 22.7589 23.1681 22.7674 23.2106V23.3563C22.7674 23.415 22.7674 23.467 22.7589 23.5087C22.7589 23.5428 22.7504 23.5768 22.7334 23.6032C22.7249 23.6279 22.7078 23.645 22.6993 23.6535C22.6823 23.662 22.6653 23.6705 22.6482 23.6705H20.4426ZM22.5716 37.1851C22.6227 37.3128 22.6482 37.4491 22.6482 37.5938C22.6482 37.7309 22.6312 37.8578 22.6142 37.9779C22.5886 38.1048 22.5375 38.241 22.4524 38.3858C22.3757 38.5306 22.265 38.6924 22.1288 38.8712C21.984 39.0424 21.7966 39.2459 21.5582 39.4843L21.0898 39.9621H22.6653C22.6908 39.9621 22.7078 39.9621 22.7249 39.9783C22.7419 39.9868 22.7589 40.0123 22.7674 40.0379C22.7845 40.0634 22.793 40.0975 22.8015 40.1409C22.8015 40.1826 22.81 40.2252 22.81 40.2857C22.81 40.3444 22.8015 40.3955 22.8015 40.4381C22.793 40.4807 22.7845 40.5148 22.776 40.5403C22.7674 40.5667 22.7504 40.5914 22.7334 40.6008C22.7163 40.6084 22.6993 40.6169 22.6823 40.6169H20.383C20.3404 40.6169 20.2979 40.6169 20.2638 40.6084C20.2297 40.6008 20.2042 40.5829 20.1872 40.5573C20.1616 40.5326 20.1531 40.4986 20.1446 40.4551C20.1361 40.4041 20.1275 40.3538 20.1275 40.2763C20.1275 40.209 20.1275 40.1486 20.1361 40.1069C20.1446 40.0549 20.1531 40.0123 20.1701 39.9697C20.1872 39.9357 20.2042 39.9016 20.2297 39.8599C20.2638 39.825 20.2893 39.7833 20.3319 39.7398L21.0302 38.9989C21.1665 38.8542 21.2772 38.7264 21.3623 38.6072C21.4475 38.488 21.5071 38.3773 21.5582 38.2836C21.6008 38.1908 21.6348 38.0963 21.6519 38.012C21.6689 37.9345 21.6774 37.8493 21.6774 37.7812C21.6774 37.7131 21.6689 37.6449 21.6519 37.5862C21.6263 37.5257 21.5923 37.4746 21.5497 37.4235C21.5071 37.3809 21.456 37.3469 21.3964 37.3213C21.3283 37.2958 21.2516 37.2788 21.1665 37.2788C21.0473 37.2788 20.9365 37.2958 20.8429 37.3298C20.7492 37.3554 20.6726 37.3895 20.5959 37.432C20.5278 37.4661 20.4682 37.5002 20.4171 37.5342C20.3745 37.5683 20.3319 37.5862 20.3064 37.5862C20.2893 37.5862 20.2723 37.5768 20.2638 37.5683C20.2468 37.5521 20.2382 37.5342 20.2297 37.5002C20.2212 37.4746 20.2127 37.4414 20.2127 37.3895C20.2042 37.3392 20.2042 37.2788 20.2042 37.2106V37.0923C20.2127 37.0573 20.2127 37.0318 20.2212 37.0063C20.2297 36.9816 20.2382 36.9637 20.2468 36.9475C20.2553 36.9296 20.2723 36.9041 20.2979 36.887C20.3234 36.8615 20.3745 36.8274 20.4426 36.7848C20.5108 36.7508 20.5959 36.7167 20.6981 36.6741C20.8003 36.6401 20.911 36.6145 21.0302 36.5898C21.1494 36.5634 21.2772 36.5464 21.4049 36.5464C21.6178 36.5464 21.7966 36.5719 21.9499 36.6316C22.1117 36.6826 22.2395 36.7508 22.3417 36.8444C22.4438 36.9381 22.5205 37.0488 22.5716 37.1851ZM38.9986 18.2715C37.0655 18.2715 35.5071 19.8299 35.5071 21.7638C35.5071 23.3299 36.546 24.6583 37.9681 25.0935V29.2151H31.2832V25.0935C32.7054 24.6498 33.7358 23.3299 33.7358 21.7638C33.7358 19.8299 32.1774 18.2715 30.2528 18.2715C28.3197 18.2715 26.7614 19.8299 26.7614 21.7638C26.7614 23.3299 27.7918 24.6583 29.2139 25.0935V29.2151H22.5375V25.0935C23.9511 24.6583 24.9901 23.3299 24.9901 21.7638C24.9901 19.8299 23.4232 18.2715 21.4986 18.2715C19.574 18.2715 18.0156 19.8299 18.0156 21.7638C18.0156 23.3299 19.046 24.6583 20.4682 25.0935V35.4053C19.046 35.8396 18.0156 37.1766 18.0156 38.735C18.0156 40.668 19.574 42.2264 21.4986 42.2264C23.4232 42.2264 24.9901 40.668 24.9901 38.735C24.9901 37.1766 23.9511 35.8396 22.5375 35.4053V31.2836H29.2139V35.4053C27.7918 35.8396 26.7614 37.1766 26.7614 38.735C26.7614 40.668 28.3197 42.2264 30.2528 42.2264C32.1774 42.2264 33.7358 40.668 33.7358 38.735C33.7358 37.1766 32.7054 35.849 31.2832 35.4053V31.2836H40.0375V25.0935C41.4511 24.6583 42.49 23.3299 42.49 21.7638C42.49 19.8299 40.9231 18.2715 38.9986 18.2715Z" fill="#D16527"/>
<path fill-rule="evenodd" clip-rule="evenodd" d="M45.5304 40.7019C45.5304 43.3682 43.3673 45.5312 40.7019 45.5312H19.7871C17.1216 45.5312 14.9671 43.3682 14.9671 40.7019V19.7871C14.9671 17.1216 17.1216 14.9586 19.7871 14.9586H40.7019C43.3673 14.9586 45.5304 17.1216 45.5304 19.7871V40.7019ZM30.2445 6C16.8576 6 6 16.8491 6 30.2445C6 43.6313 16.8576 54.489 30.2445 54.489C43.6398 54.489 54.4975 43.6313 54.4975 30.2445C54.4975 16.8491 43.6398 6 30.2445 6Z" fill="#D16527"/>
<path fill-rule="evenodd" clip-rule="evenodd" d="M30.4576 37.3052H30.4661V39.1446H29.4102L30.4576 37.3052Z" fill="#D16527"/>
<path fill-rule="evenodd" clip-rule="evenodd" d="M40.2419 22.9467C40.1652 23.117 40.0545 23.2617 39.9183 23.381C39.782 23.4917 39.6202 23.5853 39.4244 23.645C39.237 23.7046 39.0241 23.7386 38.7857 23.7386C38.6664 23.7386 38.5472 23.7301 38.4365 23.7139C38.3258 23.6961 38.2236 23.6799 38.1385 23.6535C38.0448 23.6364 37.9767 23.6109 37.9171 23.5853C37.8574 23.5598 37.8234 23.5428 37.8064 23.5257C37.7893 23.5087 37.7723 23.4917 37.7638 23.4746C37.7553 23.4576 37.7553 23.4321 37.7467 23.4065C37.7382 23.381 37.7382 23.3469 37.7382 23.3128C37.7382 23.2703 37.7297 23.2277 37.7297 23.1774C37.7297 23.117 37.7382 23.0659 37.7382 23.0233C37.7467 22.9892 37.7467 22.9552 37.7638 22.9305C37.7723 22.9041 37.7808 22.887 37.7893 22.8785C37.8064 22.87 37.8149 22.8624 37.8319 22.8624C37.8574 22.8624 37.8915 22.87 37.9341 22.8964C37.9682 22.9211 38.0278 22.9467 38.0959 22.9722C38.164 23.0063 38.2492 23.0318 38.3514 23.0574C38.445 23.0752 38.5643 23.0914 38.7005 23.0914C38.8197 23.0914 38.9304 23.0752 39.0326 23.0488C39.1263 23.0233 39.2115 22.9892 39.2796 22.9305C39.3477 22.8785 39.3988 22.8104 39.4329 22.7252C39.4754 22.6495 39.4925 22.5464 39.4925 22.4366C39.4925 22.3335 39.4754 22.2484 39.4414 22.1632C39.4158 22.0866 39.3647 22.027 39.2966 21.9673C39.237 21.9162 39.1518 21.8822 39.0411 21.8481C38.939 21.8226 38.8112 21.8141 38.6579 21.8141C38.5387 21.8141 38.428 21.8141 38.3343 21.8319C38.2321 21.8396 38.147 21.8481 38.0618 21.8481C38.0022 21.8481 37.9511 21.8319 37.9341 21.8055C37.9 21.7715 37.8915 21.7204 37.8915 21.6352V19.898C37.8915 19.8214 37.9085 19.7617 37.9426 19.7277C37.9682 19.6851 38.0192 19.6689 38.0959 19.6689H39.9864C40.0034 19.6689 40.0205 19.6766 40.0375 19.6851C40.0545 19.703 40.0716 19.7192 40.0801 19.7447C40.0886 19.7788 40.0971 19.8128 40.1056 19.8554C40.1056 19.898 40.1141 19.9499 40.1141 20.0172C40.1141 20.1364 40.0971 20.2301 40.0801 20.2812C40.0545 20.3417 40.029 20.3664 39.9864 20.3664H38.5643V21.218C38.6324 21.2094 38.709 21.2094 38.7772 21.2094C38.8538 21.2009 38.9219 21.2009 39.0071 21.2009C39.22 21.2009 39.4073 21.2273 39.5776 21.2776C39.748 21.3287 39.8842 21.4062 40.0034 21.499C40.1141 21.6012 40.1993 21.7204 40.2589 21.866C40.3185 22.0108 40.3526 22.1802 40.3526 22.3676C40.3526 22.589 40.3185 22.7763 40.2419 22.9467ZM31.147 23.415C31.0107 23.5172 30.8489 23.6032 30.6616 23.6535C30.4742 23.7139 30.2613 23.7386 30.0399 23.7386C29.9037 23.7386 29.7759 23.7301 29.6567 23.7046C29.5375 23.6875 29.4353 23.662 29.3416 23.6364C29.248 23.6109 29.1713 23.5768 29.1117 23.5428C29.0521 23.5172 29.0095 23.4917 28.9925 23.4746C28.9755 23.4576 28.9584 23.4406 28.9499 23.4235C28.9414 23.398 28.9329 23.3724 28.9329 23.3469C28.9244 23.3222 28.9159 23.2881 28.9159 23.2447C28.9073 23.2021 28.9073 23.151 28.9073 23.0914C28.9073 22.9892 28.9159 22.9211 28.9329 22.887C28.9499 22.8445 28.9755 22.8283 29.0095 22.8283C29.0266 22.8283 29.0606 22.8445 29.1117 22.87C29.1628 22.8964 29.2309 22.9305 29.3076 22.9552C29.3842 22.9892 29.4779 23.0233 29.5801 23.0488C29.6908 23.0752 29.81 23.0914 29.9377 23.0914C30.057 23.0914 30.1506 23.0752 30.2358 23.0488C30.3295 23.0233 30.3976 22.9807 30.4572 22.9381C30.5168 22.887 30.5679 22.8283 30.5935 22.7593C30.6275 22.6912 30.6446 22.6154 30.6446 22.5294C30.6446 22.4366 30.619 22.3506 30.5849 22.2824C30.5509 22.2058 30.4998 22.1462 30.4231 22.0866C30.355 22.0355 30.2699 21.9929 30.1592 21.9673C30.0485 21.9418 29.9207 21.9248 29.7759 21.9248H29.4268C29.4013 21.9248 29.3842 21.9248 29.3587 21.9162C29.3416 21.9077 29.3246 21.8907 29.3161 21.8737C29.3076 21.8481 29.2991 21.8141 29.2905 21.7715C29.282 21.7374 29.282 21.6872 29.282 21.619C29.282 21.5586 29.282 21.5075 29.2905 21.4743C29.2991 21.4308 29.3076 21.4062 29.3161 21.3883C29.3246 21.3627 29.3416 21.3457 29.3587 21.3457C29.3757 21.338 29.3927 21.3287 29.4183 21.3287H29.7674C29.8867 21.3287 29.9974 21.3116 30.091 21.2861C30.1847 21.2614 30.2613 21.218 30.321 21.1669C30.3806 21.1158 30.4317 21.0562 30.4657 20.9804C30.4998 20.9122 30.5168 20.8262 30.5168 20.7411C30.5168 20.6729 30.4998 20.6048 30.4828 20.5452C30.4572 20.4864 30.4231 20.4345 30.3806 20.3919C30.338 20.3417 30.2784 20.3076 30.2103 20.2812C30.1421 20.2557 30.057 20.2472 29.9633 20.2472C29.8526 20.2472 29.7504 20.2642 29.6567 20.2897C29.5631 20.3238 29.4779 20.3579 29.4013 20.4004C29.3331 20.4345 29.265 20.4686 29.2139 20.5026C29.1628 20.5367 29.1202 20.5546 29.0947 20.5546C29.0777 20.5546 29.0691 20.5546 29.0521 20.5452C29.0436 20.5367 29.0351 20.5205 29.0266 20.5026C29.018 20.4771 29.0095 20.4515 29.001 20.4098V20.1364C29.001 20.1024 29.0095 20.0683 29.0095 20.0513C29.018 20.0257 29.0266 20.0087 29.0351 19.9917C29.0436 19.9746 29.0606 19.9576 29.0777 19.9321C29.1032 19.9159 29.1458 19.8895 29.2054 19.8478C29.2735 19.8043 29.3502 19.7711 29.4523 19.7371C29.546 19.6936 29.6567 19.6689 29.7845 19.6425C29.9122 19.6085 30.0485 19.5999 30.1932 19.5999C30.3891 19.5999 30.5594 19.6255 30.7127 19.6689C30.8575 19.7107 30.9852 19.7788 31.0874 19.8639C31.1896 19.9499 31.2662 20.0513 31.3173 20.179C31.3684 20.3076 31.394 20.443 31.394 20.5963C31.394 20.724 31.3854 20.8356 31.3514 20.9369C31.3173 21.0485 31.2747 21.1413 31.2151 21.218C31.1555 21.3031 31.0789 21.3721 30.9937 21.4308C30.9 21.4905 30.7978 21.533 30.6786 21.5586V21.5671C30.8234 21.585 30.9426 21.619 31.0618 21.6778C31.1725 21.7289 31.2662 21.7979 31.3429 21.8822C31.4195 21.9673 31.4791 22.061 31.5217 22.1632C31.5558 22.2654 31.5813 22.3761 31.5813 22.4953C31.5813 22.6997 31.5387 22.87 31.4621 23.0233C31.3854 23.1851 31.2832 23.3128 31.147 23.415ZM31.5983 39.1446C31.6324 39.1446 31.6665 39.1693 31.6835 39.2212C31.709 39.2629 31.7261 39.3481 31.7261 39.4682C31.7261 39.5704 31.709 39.6547 31.692 39.7058C31.6665 39.7654 31.6409 39.7909 31.5983 39.7909H31.2492V40.5148C31.2492 40.5326 31.2407 40.5488 31.2236 40.5667C31.2151 40.5829 31.1896 40.5914 31.164 40.6084C31.13 40.6169 31.0959 40.6255 31.0448 40.6255C30.9937 40.6348 30.9256 40.6348 30.8489 40.6348C30.7808 40.6348 30.7127 40.6348 30.6616 40.6255C30.6105 40.6255 30.5764 40.6169 30.5424 40.6084C30.5168 40.5914 30.4913 40.5829 30.4828 40.5667C30.4742 40.5488 30.4657 40.5326 30.4657 40.5148V39.7909H28.9329C28.9073 39.7909 28.8818 39.7833 28.8562 39.7833C28.8392 39.7739 28.8137 39.7569 28.8051 39.7313C28.7881 39.7058 28.7796 39.6632 28.7711 39.6206C28.7626 39.5704 28.7541 39.5022 28.7541 39.4247C28.7541 39.3575 28.7626 39.3055 28.7626 39.2553C28.7626 39.2033 28.7711 39.1607 28.7796 39.1267C28.7881 39.0841 28.7966 39.05 28.8051 39.0083C28.8222 38.9734 28.8392 38.9393 28.8562 38.8976L30.0995 36.7082C30.1081 36.6912 30.1251 36.6741 30.1506 36.6665C30.1762 36.6486 30.2103 36.6401 30.2528 36.6316C30.3039 36.623 30.355 36.6145 30.4231 36.606H30.9426C31.0193 36.6145 31.0703 36.623 31.1214 36.6316C31.164 36.6486 31.1981 36.6571 31.2151 36.6741C31.2321 36.6912 31.2492 36.7082 31.2492 36.7346V39.1446H31.5983ZM20.4426 23.6705C20.4256 23.6705 20.4086 23.662 20.4 23.6535C20.383 23.645 20.366 23.6279 20.3575 23.6032C20.349 23.5768 20.3404 23.5428 20.3319 23.5087C20.3234 23.467 20.3234 23.415 20.3234 23.3563C20.3234 23.2958 20.3234 23.2447 20.3319 23.2106C20.3319 23.1681 20.3404 23.134 20.3575 23.1093C20.366 23.0829 20.3745 23.0659 20.3915 23.0574C20.4086 23.0488 20.4256 23.0412 20.4426 23.0412H21.1835V20.443L20.5448 20.7922C20.4937 20.8177 20.4597 20.8356 20.4256 20.8356C20.4 20.8433 20.3745 20.8356 20.3575 20.8177C20.3404 20.8015 20.3319 20.7675 20.3234 20.724C20.3149 20.6815 20.3149 20.6227 20.3149 20.5452V20.426C20.3149 20.3919 20.3234 20.3664 20.3319 20.3417C20.3404 20.3153 20.349 20.2982 20.366 20.2812C20.383 20.2735 20.4 20.2557 20.4256 20.2386L21.2857 19.6851C21.2942 19.6766 21.3027 19.6689 21.3198 19.6596C21.3368 19.6596 21.3538 19.651 21.3794 19.651C21.4049 19.651 21.439 19.6425 21.4816 19.6425H21.6348C21.7115 19.6425 21.7796 19.6425 21.8222 19.651C21.8733 19.651 21.9073 19.6596 21.9329 19.6596C21.9584 19.6689 21.9755 19.6766 21.984 19.6936C21.9925 19.703 21.9925 19.7192 21.9925 19.7371V23.0412H22.6482C22.6653 23.0412 22.6823 23.0488 22.6993 23.0574C22.7163 23.0659 22.7249 23.0829 22.7419 23.1093C22.7504 23.134 22.7589 23.1681 22.7674 23.2106V23.3563C22.7674 23.415 22.7674 23.467 22.7589 23.5087C22.7589 23.5428 22.7504 23.5768 22.7334 23.6032C22.7249 23.6279 22.7078 23.645 22.6993 23.6535C22.6823 23.662 22.6653 23.6705 22.6482 23.6705H20.4426ZM22.5716 37.1851C22.6227 37.3128 22.6482 37.4491 22.6482 37.5938C22.6482 37.7309 22.6312 37.8578 22.6142 37.9779C22.5886 38.1048 22.5375 38.241 22.4524 38.3858C22.3757 38.5306 22.265 38.6924 22.1288 38.8712C21.984 39.0424 21.7966 39.2459 21.5582 39.4843L21.0898 39.9621H22.6653C22.6908 39.9621 22.7078 39.9621 22.7249 39.9783C22.7419 39.9868 22.7589 40.0123 22.7674 40.0379C22.7845 40.0634 22.793 40.0975 22.8015 40.1409C22.8015 40.1826 22.81 40.2252 22.81 40.2857C22.81 40.3444 22.8015 40.3955 22.8015 40.4381C22.793 40.4807 22.7845 40.5148 22.776 40.5403C22.7674 40.5667 22.7504 40.5914 22.7334 40.6008C22.7163 40.6084 22.6993 40.6169 22.6823 40.6169H20.383C20.3404 40.6169 20.2979 40.6169 20.2638 40.6084C20.2297 40.6008 20.2042 40.5829 20.1872 40.5573C20.1616 40.5326 20.1531 40.4986 20.1446 40.4551C20.1361 40.4041 20.1275 40.3538 20.1275 40.2763C20.1275 40.209 20.1275 40.1486 20.1361 40.1069C20.1446 40.0549 20.1531 40.0123 20.1701 39.9697C20.1872 39.9357 20.2042 39.9016 20.2297 39.8599C20.2638 39.825 20.2893 39.7833 20.3319 39.7398L21.0302 38.9989C21.1665 38.8542 21.2772 38.7264 21.3623 38.6072C21.4475 38.488 21.5071 38.3773 21.5582 38.2836C21.6008 38.1908 21.6348 38.0963 21.6519 38.012C21.6689 37.9345 21.6774 37.8493 21.6774 37.7812C21.6774 37.7131 21.6689 37.6449 21.6519 37.5862C21.6263 37.5257 21.5923 37.4746 21.5497 37.4235C21.5071 37.3809 21.456 37.3469 21.3964 37.3213C21.3283 37.2958 21.2516 37.2788 21.1665 37.2788C21.0473 37.2788 20.9365 37.2958 20.8429 37.3298C20.7492 37.3554 20.6726 37.3895 20.5959 37.432C20.5278 37.4661 20.4682 37.5002 20.4171 37.5342C20.3745 37.5683 20.3319 37.5862 20.3064 37.5862C20.2893 37.5862 20.2723 37.5768 20.2638 37.5683C20.2468 37.5521 20.2382 37.5342 20.2297 37.5002C20.2212 37.4746 20.2127 37.4414 20.2127 37.3895C20.2042 37.3392 20.2042 37.2788 20.2042 37.2106V37.0923C20.2127 37.0573 20.2127 37.0318 20.2212 37.0063C20.2297 36.9816 20.2382 36.9637 20.2468 36.9475C20.2553 36.9296 20.2723 36.9041 20.2979 36.887C20.3234 36.8615 20.3745 36.8274 20.4426 36.7848C20.5108 36.7508 20.5959 36.7167 20.6981 36.6741C20.8003 36.6401 20.911 36.6145 21.0302 36.5898C21.1494 36.5634 21.2772 36.5464 21.4049 36.5464C21.6178 36.5464 21.7966 36.5719 21.9499 36.6316C22.1117 36.6826 22.2395 36.7508 22.3417 36.8444C22.4438 36.9381 22.5205 37.0488 22.5716 37.1851ZM38.9986 18.2715C37.0655 18.2715 35.5071 19.8299 35.5071 21.7638C35.5071 23.3299 36.546 24.6583 37.9681 25.0935V29.2151H31.2832V25.0935C32.7054 24.6498 33.7358 23.3299 33.7358 21.7638C33.7358 19.8299 32.1774 18.2715 30.2528 18.2715C28.3197 18.2715 26.7614 19.8299 26.7614 21.7638C26.7614 23.3299 27.7918 24.6583 29.2139 25.0935V29.2151H22.5375V25.0935C23.9511 24.6583 24.9901 23.3299 24.9901 21.7638C24.9901 19.8299 23.4232 18.2715 21.4986 18.2715C19.574 18.2715 18.0156 19.8299 18.0156 21.7638C18.0156 23.3299 19.046 24.6583 20.4682 25.0935V35.4053C19.046 35.8396 18.0156 37.1766 18.0156 38.735C18.0156 40.668 19.574 42.2264 21.4986 42.2264C23.4232 42.2264 24.9901 40.668 24.9901 38.735C24.9901 37.1766 23.9511 35.8396 22.5375 35.4053V31.2836H29.2139V35.4053C27.7918 35.8396 26.7614 37.1766 26.7614 38.735C26.7614 40.668 28.3197 42.2264 30.2528 42.2264C32.1774 42.2264 33.7358 40.668 33.7358 38.735C33.7358 37.1766 32.7054 35.849 31.2832 35.4053V31.2836H40.0375V25.0935C41.4511 24.6583 42.49 23.3299 42.49 21.7638C42.49 19.8299 40.9231 18.2715 38.9986 18.2715Z" fill="#D16527"/>
<path fill-rule="evenodd" clip-rule="evenodd" d="M30.4576 37.3052H30.4661V39.1446H29.4102L30.4576 37.3052Z" fill="#D16527"/>
<path fill-rule="evenodd" clip-rule="evenodd" d="M40.2419 22.9467C40.1652 23.117 40.0545 23.2617 39.9183 23.381C39.782 23.4917 39.6202 23.5853 39.4244 23.645C39.237 23.7046 39.0241 23.7386 38.7857 23.7386C38.6664 23.7386 38.5472 23.7301 38.4365 23.7139C38.3258 23.6961 38.2236 23.6799 38.1385 23.6535C38.0448 23.6364 37.9767 23.6109 37.9171 23.5853C37.8574 23.5598 37.8234 23.5428 37.8064 23.5257C37.7893 23.5087 37.7723 23.4917 37.7638 23.4746C37.7553 23.4576 37.7553 23.4321 37.7467 23.4065C37.7382 23.381 37.7382 23.3469 37.7382 23.3128C37.7382 23.2703 37.7297 23.2277 37.7297 23.1774C37.7297 23.117 37.7382 23.0659 37.7382 23.0233C37.7467 22.9892 37.7467 22.9552 37.7638 22.9305C37.7723 22.9041 37.7808 22.887 37.7893 22.8785C37.8064 22.87 37.8149 22.8624 37.8319 22.8624C37.8574 22.8624 37.8915 22.87 37.9341 22.8964C37.9682 22.9211 38.0278 22.9467 38.0959 22.9722C38.164 23.0063 38.2492 23.0318 38.3514 23.0574C38.445 23.0752 38.5643 23.0914 38.7005 23.0914C38.8197 23.0914 38.9304 23.0752 39.0326 23.0488C39.1263 23.0233 39.2115 22.9892 39.2796 22.9305C39.3477 22.8785 39.3988 22.8104 39.4329 22.7252C39.4754 22.6495 39.4925 22.5464 39.4925 22.4366C39.4925 22.3335 39.4754 22.2484 39.4414 22.1632C39.4158 22.0866 39.3647 22.027 39.2966 21.9673C39.237 21.9162 39.1518 21.8822 39.0411 21.8481C38.939 21.8226 38.8112 21.8141 38.6579 21.8141C38.5387 21.8141 38.428 21.8141 38.3343 21.8319C38.2321 21.8396 38.147 21.8481 38.0618 21.8481C38.0022 21.8481 37.9511 21.8319 37.9341 21.8055C37.9 21.7715 37.8915 21.7204 37.8915 21.6352V19.898C37.8915 19.8214 37.9085 19.7617 37.9426 19.7277C37.9682 19.6851 38.0192 19.6689 38.0959 19.6689H39.9864C40.0034 19.6689 40.0205 19.6766 40.0375 19.6851C40.0545 19.703 40.0716 19.7192 40.0801 19.7447C40.0886 19.7788 40.0971 19.8128 40.1056 19.8554C40.1056 19.898 40.1141 19.9499 40.1141 20.0172C40.1141 20.1364 40.0971 20.2301 40.0801 20.2812C40.0545 20.3417 40.029 20.3664 39.9864 20.3664H38.5643V21.218C38.6324 21.2094 38.709 21.2094 38.7772 21.2094C38.8538 21.2009 38.9219 21.2009 39.0071 21.2009C39.22 21.2009 39.4073 21.2273 39.5776 21.2776C39.748 21.3287 39.8842 21.4062 40.0034 21.499C40.1141 21.6012 40.1993 21.7204 40.2589 21.866C40.3185 22.0108 40.3526 22.1802 40.3526 22.3676C40.3526 22.589 40.3185 22.7763 40.2419 22.9467ZM31.147 23.415C31.0107 23.5172 30.8489 23.6032 30.6616 23.6535C30.4742 23.7139 30.2613 23.7386 30.0399 23.7386C29.9037 23.7386 29.7759 23.7301 29.6567 23.7046C29.5375 23.6875 29.4353 23.662 29.3416 23.6364C29.248 23.6109 29.1713 23.5768 29.1117 23.5428C29.0521 23.5172 29.0095 23.4917 28.9925 23.4746C28.9755 23.4576 28.9584 23.4406 28.9499 23.4235C28.9414 23.398 28.9329 23.3724 28.9329 23.3469C28.9244 23.3222 28.9159 23.2881 28.9159 23.2447C28.9073 23.2021 28.9073 23.151 28.9073 23.0914C28.9073 22.9892 28.9159 22.9211 28.9329 22.887C28.9499 22.8445 28.9755 22.8283 29.0095 22.8283C29.0266 22.8283 29.0606 22.8445 29.1117 22.87C29.1628 22.8964 29.2309 22.9305 29.3076 22.9552C29.3842 22.9892 29.4779 23.0233 29.5801 23.0488C29.6908 23.0752 29.81 23.0914 29.9377 23.0914C30.057 23.0914 30.1506 23.0752 30.2358 23.0488C30.3295 23.0233 30.3976 22.9807 30.4572 22.9381C30.5168 22.887 30.5679 22.8283 30.5935 22.7593C30.6275 22.6912 30.6446 22.6154 30.6446 22.5294C30.6446 22.4366 30.619 22.3506 30.5849 22.2824C30.5509 22.2058 30.4998 22.1462 30.4231 22.0866C30.355 22.0355 30.2699 21.9929 30.1592 21.9673C30.0485 21.9418 29.9207 21.9248 29.7759 21.9248H29.4268C29.4013 21.9248 29.3842 21.9248 29.3587 21.9162C29.3416 21.9077 29.3246 21.8907 29.3161 21.8737C29.3076 21.8481 29.2991 21.8141 29.2905 21.7715C29.282 21.7374 29.282 21.6872 29.282 21.619C29.282 21.5586 29.282 21.5075 29.2905 21.4743C29.2991 21.4308 29.3076 21.4062 29.3161 21.3883C29.3246 21.3627 29.3416 21.3457 29.3587 21.3457C29.3757 21.338 29.3927 21.3287 29.4183 21.3287H29.7674C29.8867 21.3287 29.9974 21.3116 30.091 21.2861C30.1847 21.2614 30.2613 21.218 30.321 21.1669C30.3806 21.1158 30.4317 21.0562 30.4657 20.9804C30.4998 20.9122 30.5168 20.8262 30.5168 20.7411C30.5168 20.6729 30.4998 20.6048 30.4828 20.5452C30.4572 20.4864 30.4231 20.4345 30.3806 20.3919C30.338 20.3417 30.2784 20.3076 30.2103 20.2812C30.1421 20.2557 30.057 20.2472 29.9633 20.2472C29.8526 20.2472 29.7504 20.2642 29.6567 20.2897C29.5631 20.3238 29.4779 20.3579 29.4013 20.4004C29.3331 20.4345 29.265 20.4686 29.2139 20.5026C29.1628 20.5367 29.1202 20.5546 29.0947 20.5546C29.0777 20.5546 29.0691 20.5546 29.0521 20.5452C29.0436 20.5367 29.0351 20.5205 29.0266 20.5026C29.018 20.4771 29.0095 20.4515 29.001 20.4098V20.1364C29.001 20.1024 29.0095 20.0683 29.0095 20.0513C29.018 20.0257 29.0266 20.0087 29.0351 19.9917C29.0436 19.9746 29.0606 19.9576 29.0777 19.9321C29.1032 19.9159 29.1458 19.8895 29.2054 19.8478C29.2735 19.8043 29.3502 19.7711 29.4523 19.7371C29.546 19.6936 29.6567 19.6689 29.7845 19.6425C29.9122 19.6085 30.0485 19.5999 30.1932 19.5999C30.3891 19.5999 30.5594 19.6255 30.7127 19.6689C30.8575 19.7107 30.9852 19.7788 31.0874 19.8639C31.1896 19.9499 31.2662 20.0513 31.3173 20.179C31.3684 20.3076 31.394 20.443 31.394 20.5963C31.394 20.724 31.3854 20.8356 31.3514 20.9369C31.3173 21.0485 31.2747 21.1413 31.2151 21.218C31.1555 21.3031 31.0789 21.3721 30.9937 21.4308C30.9 21.4905 30.7978 21.533 30.6786 21.5586V21.5671C30.8234 21.585 30.9426 21.619 31.0618 21.6778C31.1725 21.7289 31.2662 21.7979 31.3429 21.8822C31.4195 21.9673 31.4791 22.061 31.5217 22.1632C31.5558 22.2654 31.5813 22.3761 31.5813 22.4953C31.5813 22.6997 31.5387 22.87 31.4621 23.0233C31.3854 23.1851 31.2832 23.3128 31.147 23.415ZM31.5983 39.1446C31.6324 39.1446 31.6665 39.1693 31.6835 39.2212C31.709 39.2629 31.7261 39.3481 31.7261 39.4682C31.7261 39.5704 31.709 39.6547 31.692 39.7058C31.6665 39.7654 31.6409 39.7909 31.5983 39.7909H31.2492V40.5148C31.2492 40.5326 31.2407 40.5488 31.2236 40.5667C31.2151 40.5829 31.1896 40.5914 31.164 40.6084C31.13 40.6169 31.0959 40.6255 31.0448 40.6255C30.9937 40.6348 30.9256 40.6348 30.8489 40.6348C30.7808 40.6348 30.7127 40.6348 30.6616 40.6255C30.6105 40.6255 30.5764 40.6169 30.5424 40.6084C30.5168 40.5914 30.4913 40.5829 30.4828 40.5667C30.4742 40.5488 30.4657 40.5326 30.4657 40.5148V39.7909H28.9329C28.9073 39.7909 28.8818 39.7833 28.8562 39.7833C28.8392 39.7739 28.8137 39.7569 28.8051 39.7313C28.7881 39.7058 28.7796 39.6632 28.7711 39.6206C28.7626 39.5704 28.7541 39.5022 28.7541 39.4247C28.7541 39.3575 28.7626 39.3055 28.7626 39.2553C28.7626 39.2033 28.7711 39.1607 28.7796 39.1267C28.7881 39.0841 28.7966 39.05 28.8051 39.0083C28.8222 38.9734 28.8392 38.9393 28.8562 38.8976L30.0995 36.7082C30.1081 36.6912 30.1251 36.6741 30.1506 36.6665C30.1762 36.6486 30.2103 36.6401 30.2528 36.6316C30.3039 36.623 30.355 36.6145 30.4231 36.606H30.9426C31.0193 36.6145 31.0703 36.623 31.1214 36.6316C31.164 36.6486 31.1981 36.6571 31.2151 36.6741C31.2321 36.6912 31.2492 36.7082 31.2492 36.7346V39.1446H31.5983ZM20.4426 23.6705C20.4256 23.6705 20.4086 23.662 20.4 23.6535C20.383 23.645 20.366 23.6279 20.3575 23.6032C20.349 23.5768 20.3404 23.5428 20.3319 23.5087C20.3234 23.467 20.3234 23.415 20.3234 23.3563C20.3234 23.2958 20.3234 23.2447 20.3319 23.2106C20.3319 23.1681 20.3404 23.134 20.3575 23.1093C20.366 23.0829 20.3745 23.0659 20.3915 23.0574C20.4086 23.0488 20.4256 23.0412 20.4426 23.0412H21.1835V20.443L20.5448 20.7922C20.4937 20.8177 20.4597 20.8356 20.4256 20.8356C20.4 20.8433 20.3745 20.8356 20.3575 20.8177C20.3404 20.8015 20.3319 20.7675 20.3234 20.724C20.3149 20.6815 20.3149 20.6227 20.3149 20.5452V20.426C20.3149 20.3919 20.3234 20.3664 20.3319 20.3417C20.3404 20.3153 20.349 20.2982 20.366 20.2812C20.383 20.2735 20.4 20.2557 20.4256 20.2386L21.2857 19.6851C21.2942 19.6766 21.3027 19.6689 21.3198 19.6596C21.3368 19.6596 21.3538 19.651 21.3794 19.651C21.4049 19.651 21.439 19.6425 21.4816 19.6425H21.6348C21.7115 19.6425 21.7796 19.6425 21.8222 19.651C21.8733 19.651 21.9073 19.6596 21.9329 19.6596C21.9584 19.6689 21.9755 19.6766 21.984 19.6936C21.9925 19.703 21.9925 19.7192 21.9925 19.7371V23.0412H22.6482C22.6653 23.0412 22.6823 23.0488 22.6993 23.0574C22.7163 23.0659 22.7249 23.0829 22.7419 23.1093C22.7504 23.134 22.7589 23.1681 22.7674 23.2106V23.3563C22.7674 23.415 22.7674 23.467 22.7589 23.5087C22.7589 23.5428 22.7504 23.5768 22.7334 23.6032C22.7249 23.6279 22.7078 23.645 22.6993 23.6535C22.6823 23.662 22.6653 23.6705 22.6482 23.6705H20.4426ZM22.5716 37.1851C22.6227 37.3128 22.6482 37.4491 22.6482 37.5938C22.6482 37.7309 22.6312 37.8578 22.6142 37.9779C22.5886 38.1048 22.5375 38.241 22.4524 38.3858C22.3757 38.5306 22.265 38.6924 22.1288 38.8712C21.984 39.0424 21.7966 39.2459 21.5582 39.4843L21.0898 39.9621H22.6653C22.6908 39.9621 22.7078 39.9621 22.7249 39.9783C22.7419 39.9868 22.7589 40.0123 22.7674 40.0379C22.7845 40.0634 22.793 40.0975 22.8015 40.1409C22.8015 40.1826 22.81 40.2252 22.81 40.2857C22.81 40.3444 22.8015 40.3955 22.8015 40.4381C22.793 40.4807 22.7845 40.5148 22.776 40.5403C22.7674 40.5667 22.7504 40.5914 22.7334 40.6008C22.7163 40.6084 22.6993 40.6169 22.6823 40.6169H20.383C20.3404 40.6169 20.2979 40.6169 20.2638 40.6084C20.2297 40.6008 20.2042 40.5829 20.1872 40.5573C20.1616 40.5326 20.1531 40.4986 20.1446 40.4551C20.1361 40.4041 20.1275 40.3538 20.1275 40.2763C20.1275 40.209 20.1275 40.1486 20.1361 40.1069C20.1446 40.0549 20.1531 40.0123 20.1701 39.9697C20.1872 39.9357 20.2042 39.9016 20.2297 39.8599C20.2638 39.825 20.2893 39.7833 20.3319 39.7398L21.0302 38.9989C21.1665 38.8542 21.2772 38.7264 21.3623 38.6072C21.4475 38.488 21.5071 38.3773 21.5582 38.2836C21.6008 38.1908 21.6348 38.0963 21.6519 38.012C21.6689 37.9345 21.6774 37.8493 21.6774 37.7812C21.6774 37.7131 21.6689 37.6449 21.6519 37.5862C21.6263 37.5257 21.5923 37.4746 21.5497 37.4235C21.5071 37.3809 21.456 37.3469 21.3964 37.3213C21.3283 37.2958 21.2516 37.2788 21.1665 37.2788C21.0473 37.2788 20.9365 37.2958 20.8429 37.3298C20.7492 37.3554 20.6726 37.3895 20.5959 37.432C20.5278 37.4661 20.4682 37.5002 20.4171 37.5342C20.3745 37.5683 20.3319 37.5862 20.3064 37.5862C20.2893 37.5862 20.2723 37.5768 20.2638 37.5683C20.2468 37.5521 20.2382 37.5342 20.2297 37.5002C20.2212 37.4746 20.2127 37.4414 20.2127 37.3895C20.2042 37.3392 20.2042 37.2788 20.2042 37.2106V37.0923C20.2127 37.0573 20.2127 37.0318 20.2212 37.0063C20.2297 36.9816 20.2382 36.9637 20.2468 36.9475C20.2553 36.9296 20.2723 36.9041 20.2979 36.887C20.3234 36.8615 20.3745 36.8274 20.4426 36.7848C20.5108 36.7508 20.5959 36.7167 20.6981 36.6741C20.8003 36.6401 20.911 36.6145 21.0302 36.5898C21.1494 36.5634 21.2772 36.5464 21.4049 36.5464C21.6178 36.5464 21.7966 36.5719 21.9499 36.6316C22.1117 36.6826 22.2395 36.7508 22.3417 36.8444C22.4438 36.9381 22.5205 37.0488 22.5716 37.1851ZM38.9986 18.2715C37.0655 18.2715 35.5071 19.8299 35.5071 21.7638C35.5071 23.3299 36.546 24.6583 37.9681 25.0935V29.2151H31.2832V25.0935C32.7054 24.6498 33.7358 23.3299 33.7358 21.7638C33.7358 19.8299 32.1774 18.2715 30.2528 18.2715C28.3197 18.2715 26.7614 19.8299 26.7614 21.7638C26.7614 23.3299 27.7918 24.6583 29.2139 25.0935V29.2151H22.5375V25.0935C23.9511 24.6583 24.9901 23.3299 24.9901 21.7638C24.9901 19.8299 23.4232 18.2715 21.4986 18.2715C19.574 18.2715 18.0156 19.8299 18.0156 21.7638C18.0156 23.3299 19.046 24.6583 20.4682 25.0935V35.4053C19.046 35.8396 18.0156 37.1766 18.0156 38.735C18.0156 40.668 19.574 42.2264 21.4986 42.2264C23.4232 42.2264 24.9901 40.668 24.9901 38.735C24.9901 37.1766 23.9511 35.8396 22.5375 35.4053V31.2836H29.2139V35.4053C27.7918 35.8396 26.7614 37.1766 26.7614 38.735C26.7614 40.668 28.3197 42.2264 30.2528 42.2264C32.1774 42.2264 33.7358 40.668 33.7358 38.735C33.7358 37.1766 32.7054 35.849 31.2832 35.4053V31.2836H40.0375V25.0935C41.4511 24.6583 42.49 23.3299 42.49 21.7638C42.49 19.8299 40.9231 18.2715 38.9986 18.2715Z" fill="#D16527"/>
<path fill-rule="evenodd" clip-rule="evenodd" d="M39.7901 37.7811C39.7561 37.8671 39.705 37.9344 39.6454 37.994C39.5772 38.0536 39.4921 38.0962 39.3899 38.1302C39.2877 38.1643 39.1685 38.1813 39.0322 38.1813H38.5468V36.8529H38.9811C39.0833 36.8529 39.1685 36.8614 39.2281 36.8614C39.2962 36.8699 39.3473 36.8793 39.3984 36.8955C39.5517 36.938 39.6709 37.0155 39.739 37.1169C39.8072 37.2284 39.8412 37.3553 39.8412 37.5086C39.8412 37.6108 39.8242 37.7045 39.7901 37.7811ZM41.0505 40.5828C41.0419 40.5402 41.0164 40.4721 40.9823 40.3784L40.5821 39.4587C40.5395 39.348 40.4884 39.2458 40.4458 39.1607C40.3947 39.0764 40.3437 38.9989 40.2926 38.9316C40.2329 38.8541 40.1819 38.803 40.1137 38.7519C40.0541 38.7008 39.986 38.6667 39.9179 38.6327C40.0626 38.5824 40.1904 38.522 40.3096 38.4453C40.4203 38.3772 40.514 38.2835 40.5906 38.1813C40.6673 38.08 40.7269 37.9684 40.7694 37.8407C40.8035 37.713 40.8291 37.5682 40.8291 37.4149C40.8291 37.2284 40.8035 37.0573 40.7439 36.921C40.6843 36.7762 40.6076 36.6485 40.5055 36.5463C40.3947 36.4441 40.267 36.359 40.1222 36.2908C39.969 36.2227 39.7986 36.1801 39.6113 36.1546C39.5517 36.1461 39.475 36.1375 39.3984 36.1375C39.3132 36.1299 39.2196 36.1299 39.0918 36.1299H37.8826C37.8059 36.1299 37.7378 36.1546 37.6782 36.1972C37.6271 36.2483 37.6016 36.3249 37.6016 36.4271V40.6765C37.6016 40.702 37.6101 40.719 37.6186 40.7361C37.6356 40.7616 37.6612 40.7701 37.6952 40.7872C37.7378 40.7957 37.7804 40.8042 37.8485 40.8136C37.9081 40.8212 37.9848 40.8298 38.0699 40.8298C38.1636 40.8298 38.2488 40.8212 38.3084 40.8136C38.368 40.8042 38.4106 40.7957 38.4531 40.7872C38.4872 40.7701 38.5128 40.7616 38.5298 40.7361C38.5468 40.719 38.5468 40.702 38.5468 40.6765V38.8975H38.8449C38.9471 38.8975 39.0407 38.9052 39.1174 38.9392C39.194 38.9733 39.2621 39.0159 39.3218 39.0764C39.3814 39.1445 39.4325 39.2211 39.475 39.3054C39.5261 39.3991 39.5772 39.5021 39.6283 39.6205L40.0456 40.668C40.0541 40.6935 40.0711 40.719 40.0797 40.7454C40.0967 40.7616 40.1222 40.7795 40.1563 40.7957C40.1904 40.8042 40.2415 40.8136 40.3011 40.8212C40.3607 40.8212 40.4373 40.8298 40.5395 40.8298C40.6587 40.8298 40.7609 40.8212 40.8291 40.8212C40.8972 40.8136 40.9483 40.8042 40.9823 40.7957C41.0249 40.7795 41.0419 40.7616 41.059 40.7454C41.0675 40.7276 41.0675 40.7114 41.0675 40.685C41.0675 40.6594 41.059 40.6254 41.0505 40.5828Z" fill="#D16527"/>
</svg>
