<svg width="60" height="60" viewBox="0 0 60 60" fill="none" xmlns="http://www.w3.org/2000/svg">
<path fill-rule="evenodd" clip-rule="evenodd" d="M52.4031 13.2473H52.599V13.1673L52.4031 13.2473ZM52.2924 12.2773C52.4031 12.2773 52.5053 12.2973 52.599 12.3173V12.2773H52.2924ZM35.2266 13.1573V13.2473H35.448L35.2266 13.1573V13.1573Z" fill="#D16527"/>
<path fill-rule="evenodd" clip-rule="evenodd" d="M52.6261 18.3065L46.8693 20.3333V16.2713L52.6261 14.2445V18.3065ZM52.6261 23.5778L46.8693 25.6046V21.5511L52.6261 19.5243V23.5778ZM52.6261 28.8576L46.8693 30.8844V26.8308L52.6261 24.7956V28.8576ZM52.6261 34.1289L46.8693 36.1557V32.1021L52.6261 30.0754V34.1289ZM52.6261 39.4087L46.8693 41.4354V37.3819L52.6261 35.3552V39.4087ZM52.6261 44.68L46.8693 46.7152V42.6532L52.6261 40.6264V44.68ZM52.6261 49.9598L46.8693 51.9865V47.933L52.6261 45.9062V49.9598ZM52.6261 54.0729H46.8693V53.2128L52.6261 51.1775V54.0729ZM44.3997 54.0729H45.7367V13.1034H44.3997V54.0729ZM42.126 54.0729H43.4545V13.1034H42.126V54.0729ZM35.2281 54.0729V51.1775L40.9848 53.2128V54.0729H35.2281ZM35.2281 45.9062L40.9848 47.933V51.9865L35.2281 49.9598V45.9062ZM35.2281 40.6264L40.9848 42.6532V46.7152L35.2281 44.68V40.6264ZM35.2281 35.3552L40.9848 37.3819V41.4354L35.2281 39.4087V35.3552ZM35.2281 30.0754L40.9848 32.1021V36.1557L35.2281 34.1289V30.0754ZM35.2281 24.7956L40.9848 26.8308V30.8844L35.2281 28.8576V24.7956ZM35.2281 19.5243L40.9848 21.5511V25.6046L35.2281 23.5778V19.5243ZM35.2281 14.2445L40.9848 16.2713V20.3333L35.2281 18.3065V14.2445ZM35.2281 13.0267L35.4495 13.1034H40.9848V15.0535L35.4495 13.1034H35.2281V13.0267ZM46.8693 13.1034H52.4047L52.6005 13.0353V13.1034H52.4047L46.8693 15.0535V13.1034ZM53.137 12.3199C53.0263 12.2944 52.9156 12.2773 52.8049 12.2773H52.6005V12.3114C52.5068 12.2944 52.4047 12.2773 52.2939 12.2773H35.1174C34.2828 12.2773 33.6016 12.9586 33.6016 13.8017V53.5449C33.6016 54.388 34.2828 55.0607 35.1174 55.0607H52.8049C52.9156 55.0607 53.0263 55.0522 53.137 55.0267C53.8098 54.8734 54.3207 54.2773 54.3207 53.5449V13.8017C54.3207 13.0693 53.8098 12.4647 53.137 12.3199Z" fill="#D16527"/>
<path fill-rule="evenodd" clip-rule="evenodd" d="M44.3984 55.0692H45.7354V55.0607H44.3984V55.0692Z" fill="#D16527"/>
<path fill-rule="evenodd" clip-rule="evenodd" d="M42.125 55.0692H43.4535V55.0607H42.125V55.0692Z" fill="#D16527"/>
<path fill-rule="evenodd" clip-rule="evenodd" d="M31.2852 46.4213H32.6903V20.9199H31.2852V46.4213Z" fill="#D16527"/>
<path fill-rule="evenodd" clip-rule="evenodd" d="M30.4321 30.3052V37.0412H6V30.3052H16.6704C16.8067 30.7906 17.0451 31.2419 17.3602 31.6166C17.9393 32.3064 18.7483 32.6981 19.5914 32.6981C20.9539 32.6981 22.1036 31.6933 22.5123 30.3052H30.4321Z" fill="#D16527"/>
<path fill-rule="evenodd" clip-rule="evenodd" d="M21.798 6.22262H17.3867C17.5656 4.96229 18.4853 4 19.5923 4C20.2055 4 20.7675 4.29805 21.1678 4.77494C21.4999 5.15815 21.7213 5.66058 21.798 6.22262Z" fill="#D16527"/>
<path fill-rule="evenodd" clip-rule="evenodd" d="M21.8217 28.7212V29.1981C21.8217 30.6628 20.8253 31.8465 19.5905 31.8465C18.9774 31.8465 18.4153 31.5484 18.0151 31.0716C17.6149 30.5947 17.3594 29.9304 17.3594 29.1981V28.7212H21.8217Z" fill="#D16527"/>
<path fill-rule="evenodd" clip-rule="evenodd" d="M23.3059 11.6387H21.1769L23.4677 12.4647C23.5273 12.4903 23.5869 12.5158 23.6465 12.5499C23.655 12.5584 23.655 12.5584 23.6636 12.5584C23.9957 12.6946 24.2341 13.0268 24.2341 13.4185C24.2341 13.9294 23.8169 14.3467 23.3059 14.3467H21.1769L23.4677 15.1727C23.5273 15.1983 23.5869 15.2238 23.6465 15.2579C23.655 15.2664 23.655 15.2664 23.6636 15.2664C23.9957 15.4027 24.2341 15.7348 24.2341 16.118C24.2341 16.6375 23.8169 17.0547 23.3059 17.0547H21.2025L23.4677 17.8723C23.5358 17.8978 23.604 17.9319 23.6636 17.9744C23.9957 18.1107 24.2341 18.4428 24.2341 18.826C24.2341 19.337 23.8169 19.7542 23.3059 19.7542H21.1769L23.4677 20.5803C23.5273 20.6058 23.5869 20.6314 23.638 20.6654C23.9872 20.7932 24.2341 21.1338 24.2341 21.5341C24.2341 22.045 23.8169 22.4623 23.3059 22.4623H21.1769L23.4677 23.2883C23.5273 23.3139 23.5869 23.3394 23.6465 23.3735C23.655 23.382 23.655 23.382 23.6636 23.382C23.9957 23.5182 24.2341 23.8503 24.2341 24.2336C24.2341 24.7445 23.8169 25.1618 23.3059 25.1618H21.1769L23.4677 25.9878C23.5273 26.0134 23.5869 26.0389 23.6465 26.073C23.655 26.0815 23.655 26.0815 23.6636 26.0815C23.9957 26.2177 24.2341 26.5499 24.2341 26.9416C24.2341 27.4525 23.8169 27.8698 23.3059 27.8698H15.5735C15.054 27.8698 14.6367 27.4525 14.6367 26.9416C14.6367 26.4221 15.054 26.0048 15.5735 26.0048H18.0175L15.6757 25.1618H15.5735C15.054 25.1618 14.6367 24.7445 14.6367 24.2336C14.6367 23.7226 15.054 23.3053 15.5735 23.3053H18.0346L15.7012 22.4623H15.5735C15.054 22.4623 14.6367 22.045 14.6367 21.5341C14.6367 21.0146 15.054 20.5973 15.5735 20.5973H18.0175L15.6757 19.7542H15.5735C15.054 19.7542 14.6367 19.337 14.6367 18.826C14.6367 18.3151 15.054 17.8978 15.5735 17.8978H18.0346L15.7012 17.0547H15.5735C15.054 17.0547 14.6367 16.6375 14.6367 16.118C14.6367 15.6071 15.054 15.1898 15.5735 15.1898H18.0346L15.7012 14.3467H15.5735C15.054 14.3467 14.6367 13.9294 14.6367 13.4185C14.6367 12.899 15.054 12.4818 15.5735 12.4818H18.0175L15.6757 11.6387H15.5735C15.054 11.6387 14.6367 11.2214 14.6367 10.7105C14.6367 10.1995 15.054 9.78224 15.5735 9.78224H18.0346L15.7012 8.93918H15.5735C15.054 8.93918 14.6367 8.52191 14.6367 8.00244C14.6367 7.49149 15.054 7.07422 15.5735 7.07422H23.3059C23.8169 7.07422 24.2341 7.49149 24.2341 8.00244C24.2341 8.52191 23.8169 8.93918 23.3059 8.93918H21.1769L23.4677 9.76521C23.5273 9.79076 23.5869 9.81631 23.6465 9.85037C23.655 9.85889 23.655 9.85889 23.6636 9.85889C23.9957 9.99514 24.2341 10.3273 24.2341 10.7105C24.2341 11.2214 23.8169 11.6387 23.3059 11.6387Z" fill="#D16527"/>
<path fill-rule="evenodd" clip-rule="evenodd" d="M35.4467 13.1033H35.2252V13.0266L35.4467 13.1033Z" fill="#D16527"/>
<path fill-rule="evenodd" clip-rule="evenodd" d="M52.5986 12.2774V12.3115C52.5049 12.2944 52.4027 12.2774 52.292 12.2774H52.5986Z" fill="#D16527"/>
<path fill-rule="evenodd" clip-rule="evenodd" d="M52.5979 13.0353V13.1034H52.4021L52.5979 13.0353Z" fill="#D16527"/>
</svg>
