<svg width="60" height="60" viewBox="0 0 60 60" fill="none" xmlns="http://www.w3.org/2000/svg">
<path fill-rule="evenodd" clip-rule="evenodd" d="M32.9155 24.6704L30.0287 41.3145H21.4609L26.3379 24.6704H32.9155Z" fill="#D16527"/>
<path fill-rule="evenodd" clip-rule="evenodd" d="M18.3945 10.8194H42.5292V4.38232H18.3945V10.8194Z" fill="#D16527"/>
<path fill-rule="evenodd" clip-rule="evenodd" d="M18.3945 15.0567H42.5292V12.5752H18.3945V15.0567Z" fill="#D16527"/>
<path fill-rule="evenodd" clip-rule="evenodd" d="M30.5278 22.5175C29.4353 22.5175 28.5386 21.6429 28.5147 20.5504V20.5035C28.5147 19.388 29.4199 18.4904 30.5278 18.4904C31.6434 18.4904 32.5495 19.388 32.5495 20.5035C32.5495 20.8552 32.455 21.1907 32.2991 21.4786C31.9483 22.1028 31.2926 22.5175 30.5278 22.5175ZM18.3945 16.8213V28.1814H24.4416L25.3783 24.678C25.3783 24.242 25.6824 23.8903 26.08 23.8903H34.8666C35.2567 23.8903 35.5692 24.242 35.5692 24.678L36.6218 28.1814H42.5292V16.8213H18.3945Z" fill="#D16527"/>
<path fill-rule="evenodd" clip-rule="evenodd" d="M25.1518 53.9637C22.2488 53.9637 19.8848 51.6074 19.8848 48.6967C19.8848 45.786 22.2488 43.4288 25.1518 43.4288C28.0625 43.4288 30.4188 45.786 30.4188 48.6967C30.4188 51.6074 28.0625 53.9637 25.1518 53.9637ZM18.3945 55.6175H31.9168V42.0952H18.3945V55.6175Z" fill="#D16527"/>
<path fill-rule="evenodd" clip-rule="evenodd" d="M25.1414 52.0089C23.5344 52.0089 22.1847 50.8465 21.8951 49.317H20.4688C20.7651 51.6265 22.7467 53.414 25.1414 53.414C27.5377 53.414 29.5202 51.6265 29.8165 49.317H28.3876C28.0998 50.8465 26.75 52.0089 25.1414 52.0089ZM25.1414 45.3845C26.75 45.3845 28.0998 46.5392 28.3876 48.0695H29.8165C29.5202 45.7591 27.5377 43.9717 25.1414 43.9717C22.7467 43.9717 20.7651 45.7591 20.4688 48.0695H21.8951C22.1847 46.5392 23.5344 45.3845 25.1414 45.3845Z" fill="#D16527"/>
</svg>
