<svg width="60" height="60" viewBox="0 0 60 60" fill="none" xmlns="http://www.w3.org/2000/svg">
<path fill-rule="evenodd" clip-rule="evenodd" d="M34.227 27.7202L33.2307 15.466L42.7428 27.3881L43.2708 28.0515L34.227 27.7202ZM17.8 50.5937H42.4277V32.6083H17.8V50.5937ZM47.9119 28.0515L47.8012 27.9152L47.7757 27.8906L33.0263 10.0159L32.6175 9.52197C32.328 9.26649 31.9448 9.12173 31.5275 9.12173H26.418V7.87842H18.4728V9.12173H14.2149C13.2781 9.12173 12.5117 9.87963 12.5117 10.8249V54.3909C12.5117 55.337 13.2781 56.094 14.2149 56.094H46.5749C47.5117 56.094 48.2781 55.337 48.2781 54.3909V29.0913C48.2781 28.6902 48.1418 28.3325 47.9119 28.0515Z" fill="#D16527"/>
<path fill-rule="evenodd" clip-rule="evenodd" d="M33.0286 10.015L32.6198 9.52112C32.791 9.65652 32.9273 9.82769 33.0286 10.015Z" fill="#EA000D"/>
<path fill-rule="evenodd" clip-rule="evenodd" d="M17.8008 7.02412H27.0975V3.36914H17.8008V7.02412Z" fill="#D16527"/>
<path fill-rule="evenodd" clip-rule="evenodd" d="M29.5609 46.6931C29.2713 47.0848 28.7008 46.7356 28.3601 46.5483C27.9514 46.3269 27.1594 45.6797 27.2275 45.1176C27.3467 44.3257 28.1387 44.8622 28.59 45.236C29.1862 45.7819 29.6886 46.5313 29.5609 46.6931ZM33.9295 41.5316L33.8613 41.4303L30.4039 35.2563L26.7421 41.7624C26.4015 42.3585 26.2227 43.0483 26.2227 43.7807C26.2227 46.0876 28.0961 47.9449 30.4039 47.9449C32.7117 47.9449 34.5767 46.0876 34.5767 43.7807C34.5767 42.9538 34.3382 42.1788 33.9295 41.5316Z" fill="#D16527"/>
</svg>
