<svg width="62" height="60" viewBox="0 0 62 60" fill="none" xmlns="http://www.w3.org/2000/svg">
<path fill-rule="evenodd" clip-rule="evenodd" d="M13.6268 11.8625C13.4692 12.1469 13.3628 12.3624 13.3228 12.4765C13.2121 12.8154 13.1678 12.984 13.132 13.0777C12.937 13.03 12.7207 12.9457 12.5461 13.0019C12.3732 13.0701 12.3426 13.2378 12.1399 13.2906C11.8989 13.3392 11.5446 13.2063 11.3079 13.1731C10.8004 13.0888 10.2724 13.0198 9.76483 12.9023C8.94815 12.7158 8.66372 11.9545 8.71226 11.1906C8.76506 10.4778 9.49232 10.242 10.0671 10.156C10.642 10.0529 11.4246 9.79658 11.9662 10.1219C12.7539 10.6056 12.4431 12.0797 13.6268 11.8625Z" fill="#D16527"/>
<path fill-rule="evenodd" clip-rule="evenodd" d="M49.1771 29.1557C48.2071 29.1557 47.2789 29.1897 46.3328 29.2068C45.9411 29.2153 45.5578 29.2153 45.1661 29.2153C44.3486 29.2153 42.6284 29.2834 41.8883 29.0109C40.6706 28.6022 40.3546 26.9927 40.0225 25.843C40.1085 25.8175 40.1928 25.8005 40.2865 25.7834C40.4057 25.7664 40.5428 25.7408 40.6791 25.7153C40.7634 25.7068 40.8571 25.6897 40.9507 25.6727C40.9848 25.6727 41.0104 25.6727 41.0444 25.6642C41.1636 25.6472 41.2999 25.6301 41.4276 25.6131H41.4626C41.5894 25.5961 41.7257 25.579 41.8619 25.562C42.1941 25.5279 42.5432 25.4939 42.9094 25.4683C43.0124 25.4683 43.1138 25.4598 43.216 25.4513C43.7695 25.4087 44.3409 25.3747 44.9021 25.3576C45.0469 25.3491 45.1925 25.3406 45.3373 25.3321H45.6524C45.7801 25.3236 45.8985 25.3236 46.0262 25.3151H46.3243C47.7813 25.2895 48.9642 25.3491 49.3048 25.4683C50.216 25.809 50.0551 26.6435 50.3276 27.5292C50.5993 28.7469 50.3957 29.1557 49.1771 29.1557ZM38.66 27.4696C38.2257 28.6873 36.531 28.5255 36.3607 28.5255L24.6258 28.534C24.464 28.534 22.7608 28.7043 22.3265 27.4866C21.876 26.2603 21.2024 24.2932 20.9639 23.3138C20.7093 22.2834 19.8739 20.5121 24.8642 20.6228C27.436 20.6739 29.2925 20.6739 30.4847 20.6569C31.6855 20.6739 33.5419 20.6739 36.1137 20.6143C41.0964 20.4951 40.2695 22.2664 40.0148 23.2968C39.7756 24.2761 39.1028 26.2518 38.66 27.4696ZM19.1083 29.0279C18.3581 29.3004 16.6379 29.2408 15.8203 29.2408C15.5223 29.2408 15.2242 29.2408 14.9347 29.2323C14.2194 29.2238 13.5049 29.2068 12.781 29.1983C12.4566 29.1897 12.1423 29.1897 11.8094 29.1897C10.5924 29.1897 10.3872 28.781 10.6606 27.5632C10.9322 26.6776 10.7619 25.843 11.6731 25.5024C12.0061 25.3832 13.1123 25.3321 14.4842 25.3406C14.629 25.3406 14.7823 25.3406 14.9347 25.3491C15.3869 25.3576 15.8629 25.3661 16.3483 25.3917C16.6379 25.4002 16.9274 25.4172 17.217 25.4343C17.3285 25.4343 17.4298 25.4428 17.532 25.4513C17.6947 25.4598 17.8471 25.4769 18.0004 25.4854C18.1546 25.4939 18.307 25.5109 18.4611 25.5194C18.6144 25.5365 18.7592 25.5535 18.9031 25.562C19.1245 25.579 19.3374 25.6046 19.5418 25.6301C19.6789 25.6472 19.8152 25.6642 19.9335 25.6812C20.0442 25.6983 20.1464 25.7153 20.2495 25.7238C20.2997 25.7323 20.3508 25.7408 20.3934 25.7494C20.4624 25.7579 20.522 25.7749 20.5807 25.7834C20.6063 25.7919 20.6318 25.7919 20.6489 25.7919C20.6914 25.8005 20.7349 25.809 20.7766 25.8175C20.8447 25.8345 20.9043 25.843 20.9639 25.8601C20.6233 27.0097 20.3253 28.6192 19.1083 29.0279ZM11.1111 17.6423C11.2643 16.9355 11.4176 17.0377 12.1755 17.0292C13.3422 17.0292 14.4672 17.1399 15.6338 17.3443C17.1659 17.5912 18.9457 17.5401 20.4624 17.9915C18.6987 21.1508 16.7579 20.5973 14.5174 20.5973C13.2996 20.5973 11.4176 20.5973 11.1111 19.1241C11.0097 18.7153 11.0097 18.1022 11.1111 17.6423ZM18.0353 5.79683L30.4847 5.36253L42.9094 5.77129C42.9094 5.77129 47.3973 12.7542 47.0575 12.7542C46.733 12.7542 35.5176 12.1241 30.4762 12.2348C25.4433 12.1326 14.2194 12.7798 13.9043 12.7798C13.5645 12.7798 18.0353 5.79683 18.0353 5.79683ZM48.7854 17.0036C49.5526 17.0036 49.7051 16.9014 49.8584 17.6083C49.9606 18.0681 49.9606 18.6812 49.8584 19.09C49.5526 20.5632 47.6792 20.5632 46.452 20.5632C44.2123 20.5718 42.2707 21.1253 40.5088 17.9744C42.0246 17.5231 43.8121 17.5657 45.3373 17.3187C46.4954 17.1058 47.6187 17.0036 48.7854 17.0036ZM52.1151 17.5316C52.0725 16.8163 50.4119 15.2834 49.935 14.8151C49.6208 14.5085 48.5129 13.5632 48.1467 13.3248C47.9261 13.1886 47.8827 13.1885 47.8231 13.0523C47.789 12.9501 47.7473 12.7798 47.6366 12.4477C47.5931 12.3285 47.4918 12.1156 47.3291 11.8345C46.3754 10.1058 43.5915 5.80535 43.3607 5.56691C43.0797 5.2944 42.4751 4.74939 41.6073 4.59611C40.7472 4.45134 32.1027 4 30.4762 4C28.8411 4 20.1975 4.46837 19.3374 4.62165C18.4696 4.77494 17.8642 5.31143 17.5917 5.58394C17.3617 5.82238 14.577 10.1314 13.6326 11.8601C13.4708 12.1496 13.3678 12.3625 13.3252 12.4732C13.2153 12.8139 13.1719 12.9842 13.1387 13.0778C13.0953 13.1715 12.8738 13.3248 12.7895 13.3674C12.7717 13.3844 12.764 13.3929 12.764 13.3929C12.5247 13.5547 11.5547 14.2104 11.0344 14.764C10.2433 15.5985 8.88926 16.8503 8.85434 17.5657C8.82113 18.281 8.51371 18.7834 8.59035 20.2141C8.6159 20.9039 8.81262 22.9988 8.99997 24.9915C9.18646 27.0863 9.3917 29.0705 9.40788 29.2238C9.44194 29.5304 9.33975 29.871 9.476 30.135C9.61226 30.4075 9.95375 30.4841 10.4902 30.4756C10.6606 30.4756 12.4566 30.5012 14.9347 30.5352C20.8277 30.6034 30.4932 30.7311 30.4932 30.7311C30.4932 30.7311 40.4662 30.5863 46.3328 30.5012C48.6576 30.4671 50.3438 30.4416 50.4971 30.4416C51.0344 30.4416 51.3742 30.3734 51.519 30.1009C51.6467 29.8369 51.5454 29.4963 51.5794 29.1897C51.605 28.9768 51.9541 25.3917 52.1841 22.7518C52.2854 21.5851 52.3629 20.6058 52.3884 20.1715C52.4566 18.7494 52.15 18.2384 52.1151 17.5316Z" fill="#D16527"/>
<path fill-rule="evenodd" clip-rule="evenodd" d="M14.9349 31.3868V33.7286C14.9349 33.95 14.756 34.1374 14.5355 34.1374L9.41658 34.1459C9.18665 34.1459 9.00781 33.9585 9.00781 33.7371V30.9014C9.45149 31.3101 10.0987 31.3272 10.4564 31.3272C10.464 31.3272 14.9272 31.3868 14.9272 31.3868H14.9349Z" fill="#D16527"/>
<path fill-rule="evenodd" clip-rule="evenodd" d="M52.2676 30.501V33.6944C52.2676 33.9243 52.0888 34.1032 51.8588 34.1032L46.7408 34.1117C46.5194 34.1117 46.332 33.9243 46.332 33.7029V31.3526C48.7505 31.3185 50.4631 31.2929 50.4963 31.2929C50.8974 31.2929 51.8256 31.2929 52.2676 30.501Z" fill="#D16527"/>
<path fill-rule="evenodd" clip-rule="evenodd" d="M14.4726 27.294C14.4726 28.1507 13.7794 28.8447 12.9227 28.8464C12.0677 28.8464 11.3719 28.1533 11.3711 27.2957C11.3711 26.439 12.0643 25.7433 12.9227 25.7441C13.776 25.7433 14.4709 26.4373 14.4726 27.294Z" fill="#D16527"/>
<path fill-rule="evenodd" clip-rule="evenodd" d="M51.1943 12.8669C50.6876 12.9853 50.1563 13.0542 49.6487 13.1402C49.412 13.1735 49.0594 13.308 48.8184 13.2595C48.6149 13.2067 48.5834 13.0398 48.4122 12.9708C48.2359 12.9137 48.0213 12.9997 47.8263 13.0491C47.7897 12.9546 47.7446 12.7843 47.6338 12.4462C47.5938 12.3321 47.4891 12.1175 47.3281 11.8322C48.5118 12.046 48.1976 10.5753 48.9879 10.0899C49.5261 9.76373 50.3087 10.0201 50.8869 10.1214C51.4609 10.2057 52.189 10.4416 52.2409 11.1535C52.2912 11.9165 52.0076 12.677 51.1943 12.8669Z" fill="#D16527"/>
<path fill-rule="evenodd" clip-rule="evenodd" d="M17.1404 27.2922C17.1413 27.902 16.6473 28.3984 16.0351 28.3984C15.4262 28.3984 14.9288 27.9045 14.9297 27.2931C14.928 26.6808 15.4236 26.186 16.0351 26.186C16.6456 26.1852 17.1413 26.68 17.1404 27.2922Z" fill="#D16527"/>
<path fill-rule="evenodd" clip-rule="evenodd" d="M49.5077 27.2636C49.5112 28.1186 48.8171 28.8152 47.9579 28.8152C47.1046 28.8169 46.4071 28.122 46.4063 27.2645C46.4037 26.4103 47.1012 25.7146 47.9561 25.7129C48.8137 25.7137 49.5094 26.4061 49.5077 27.2636Z" fill="#D16527"/>
<path fill-rule="evenodd" clip-rule="evenodd" d="M45.7967 27.2661C45.7975 27.8784 45.3019 28.3723 44.6922 28.374C44.0833 28.3732 43.5859 27.8793 43.5859 27.2687C43.5868 26.6572 44.0799 26.1608 44.6904 26.1616C45.3019 26.1608 45.7967 26.6547 45.7967 27.2661Z" fill="#D16527"/>
<path fill-rule="evenodd" clip-rule="evenodd" d="M0 56.1934H11.2154V52.1484H0V56.1934Z" fill="#D16527"/>
<path fill-rule="evenodd" clip-rule="evenodd" d="M3.79688 51.2966V17.0205H7.41613V34.9633H16.2982V36.3769H7.41613V51.2966H3.79688Z" fill="#D16527"/>
<path fill-rule="evenodd" clip-rule="evenodd" d="M50.0195 56.2198H61.2341V52.1748H50.0195V56.2198Z" fill="#D16527"/>
<path fill-rule="evenodd" clip-rule="evenodd" d="M53.8196 51.323V36.4033H44.9375V34.9897H53.8196V17.0469H57.4388V51.323H53.8196Z" fill="#D16527"/>
</svg>
