<svg width="60" height="60" viewBox="0 0 60 60" fill="none" xmlns="http://www.w3.org/2000/svg">
<path fill-rule="evenodd" clip-rule="evenodd" d="M21.745 26.5304C21.745 26.7774 21.5492 26.9733 21.3022 26.9733C21.0638 26.9733 20.8594 26.7774 20.8594 26.5304C20.8594 26.2826 21.0638 26.0791 21.3022 26.0791C21.5492 26.0791 21.745 26.2826 21.745 26.5304Z" fill="#D16527"/>
<path fill-rule="evenodd" clip-rule="evenodd" d="M36.6286 30.9842C35.9142 30.9842 35.3342 31.5633 35.3342 32.2786C35.3342 32.9931 35.9142 33.573 36.6286 33.573C37.344 33.573 37.923 32.9931 37.923 32.2786C37.923 31.5633 37.344 30.9842 36.6286 30.9842ZM33.1465 38.8699C30.7868 37.6181 29.1773 35.1314 29.1773 32.2786C29.1773 29.8942 30.3014 27.7652 32.0557 26.4026L26.1968 25.1159C26.3339 25.5681 26.402 26.0356 26.402 26.5304C26.402 29.3398 24.1189 31.6314 21.3002 31.6314C21.0192 31.6314 20.7382 31.605 20.475 31.5633L22.1347 37.0901C22.8671 36.528 23.7791 36.1866 24.7746 36.1866C27.1591 36.1866 29.0922 38.129 29.0922 40.5126V40.522L33.1465 38.8699ZM24.7746 40.2921C24.6469 40.2921 24.5532 40.3857 24.5532 40.5126C24.5532 40.6327 24.6554 40.7349 24.7746 40.7349C24.8939 40.7349 24.9875 40.6327 24.9875 40.5126C24.9875 40.3857 24.8939 40.2921 24.7746 40.2921ZM36.6286 30.9842C35.9142 30.9842 35.3342 31.5633 35.3342 32.2786C35.3342 32.9931 35.9142 33.573 36.6286 33.573C37.344 33.573 37.923 32.9931 37.923 32.2786C37.923 31.5633 37.344 30.9842 36.6286 30.9842ZM36.6286 30.9842C35.9142 30.9842 35.3342 31.5633 35.3342 32.2786C35.3342 32.9931 35.9142 33.573 36.6286 33.573C37.344 33.573 37.923 32.9931 37.923 32.2786C37.923 31.5633 37.344 30.9842 36.6286 30.9842ZM33.1465 38.8699C30.7868 37.6181 29.1773 35.1314 29.1773 32.2786C29.1773 29.8942 30.3014 27.7652 32.0557 26.4026L26.1968 25.1159C26.3339 25.5681 26.402 26.0356 26.402 26.5304C26.402 29.3398 24.1189 31.6314 21.3002 31.6314C21.0192 31.6314 20.7382 31.605 20.475 31.5633L22.1347 37.0901C22.8671 36.528 23.7791 36.1866 24.7746 36.1866C27.1591 36.1866 29.0922 38.129 29.0922 40.5126V40.522L33.1465 38.8699ZM36.6286 30.9842C35.9142 30.9842 35.3342 31.5633 35.3342 32.2786C35.3342 32.9931 35.9142 33.573 36.6286 33.573C37.344 33.573 37.923 32.9931 37.923 32.2786C37.923 31.5633 37.344 30.9842 36.6286 30.9842ZM36.6286 30.9842C35.9142 30.9842 35.3342 31.5633 35.3342 32.2786C35.3342 32.9931 35.9142 33.573 36.6286 33.573C37.344 33.573 37.923 32.9931 37.923 32.2786C37.923 31.5633 37.344 30.9842 36.6286 30.9842ZM33.1465 38.8699C30.7868 37.6181 29.1773 35.1314 29.1773 32.2786C29.1773 29.8942 30.3014 27.7652 32.0557 26.4026L26.1968 25.1159C26.3339 25.5681 26.402 26.0356 26.402 26.5304C26.402 29.3398 24.1189 31.6314 21.3002 31.6314C21.0192 31.6314 20.7382 31.605 20.475 31.5633L22.1347 37.0901C22.8671 36.528 23.7791 36.1866 24.7746 36.1866C27.1591 36.1866 29.0922 38.129 29.0922 40.5126V40.522L33.1465 38.8699ZM24.7746 40.2921C24.6469 40.2921 24.5532 40.3857 24.5532 40.5126C24.5532 40.6327 24.6554 40.7349 24.7746 40.7349C24.8939 40.7349 24.9875 40.6327 24.9875 40.5126C24.9875 40.3857 24.8939 40.2921 24.7746 40.2921ZM33.1465 38.8699C30.7868 37.6181 29.1773 35.1314 29.1773 32.2786C29.1773 29.8942 30.3014 27.7652 32.0557 26.4026L26.1968 25.1159C26.3339 25.5681 26.402 26.0356 26.402 26.5304C26.402 29.3398 24.1189 31.6314 21.3002 31.6314C21.0192 31.6314 20.7382 31.605 20.475 31.5633L22.1347 37.0901C22.8671 36.528 23.7791 36.1866 24.7746 36.1866C27.1591 36.1866 29.0922 38.129 29.0922 40.5126V40.522L33.1465 38.8699ZM36.6286 30.9842C35.9142 30.9842 35.3342 31.5633 35.3342 32.2786C35.3342 32.9931 35.9142 33.573 36.6286 33.573C37.344 33.573 37.923 32.9931 37.923 32.2786C37.923 31.5633 37.344 30.9842 36.6286 30.9842ZM36.6286 30.9842C35.9142 30.9842 35.3342 31.5633 35.3342 32.2786C35.3342 32.9931 35.9142 33.573 36.6286 33.573C37.344 33.573 37.923 32.9931 37.923 32.2786C37.923 31.5633 37.344 30.9842 36.6286 30.9842ZM33.1465 38.8699C30.7868 37.6181 29.1773 35.1314 29.1773 32.2786C29.1773 29.8942 30.3014 27.7652 32.0557 26.4026L26.1968 25.1159C26.3339 25.5681 26.402 26.0356 26.402 26.5304C26.402 29.3398 24.1189 31.6314 21.3002 31.6314C21.0192 31.6314 20.7382 31.605 20.475 31.5633L22.1347 37.0901C22.8671 36.528 23.7791 36.1866 24.7746 36.1866C27.1591 36.1866 29.0922 38.129 29.0922 40.5126V40.522L33.1465 38.8699ZM24.7746 40.2921C24.6469 40.2921 24.5532 40.3857 24.5532 40.5126C24.5532 40.6327 24.6554 40.7349 24.7746 40.7349C24.8939 40.7349 24.9875 40.6327 24.9875 40.5126C24.9875 40.3857 24.8939 40.2921 24.7746 40.2921ZM24.7746 40.2921C24.6469 40.2921 24.5532 40.3857 24.5532 40.5126C24.5532 40.6327 24.6554 40.7349 24.7746 40.7349C24.8939 40.7349 24.9875 40.6327 24.9875 40.5126C24.9875 40.3857 24.8939 40.2921 24.7746 40.2921ZM33.1465 38.8699C30.7868 37.6181 29.1773 35.1314 29.1773 32.2786C29.1773 29.8942 30.3014 27.7652 32.0557 26.4026L26.1968 25.1159C26.3339 25.5681 26.402 26.0356 26.402 26.5304C26.402 29.3398 24.1189 31.6314 21.3002 31.6314C21.0192 31.6314 20.7382 31.605 20.475 31.5633L22.1347 37.0901C22.8671 36.528 23.7791 36.1866 24.7746 36.1866C27.1591 36.1866 29.0922 38.129 29.0922 40.5126V40.522L33.1465 38.8699ZM36.6286 30.9842C35.9142 30.9842 35.3342 31.5633 35.3342 32.2786C35.3342 32.9931 35.9142 33.573 36.6286 33.573C37.344 33.573 37.923 32.9931 37.923 32.2786C37.923 31.5633 37.344 30.9842 36.6286 30.9842ZM24.5532 40.5126C24.5532 40.6327 24.6554 40.7349 24.7746 40.7349C24.8939 40.7349 24.9875 40.6327 24.9875 40.5126C24.9875 40.3857 24.8939 40.2921 24.7746 40.2921C24.6469 40.2921 24.5532 40.3857 24.5532 40.5126ZM21.3002 31.6314C21.0192 31.6314 20.7382 31.605 20.475 31.5633L22.1347 37.0901C22.8671 36.528 23.7791 36.1866 24.7746 36.1866C27.1591 36.1866 29.0922 38.129 29.0922 40.5126V40.522L33.1465 38.8699C30.7868 37.6181 29.1773 35.1314 29.1773 32.2786C29.1773 29.8942 30.3014 27.7652 32.0557 26.4026L26.1968 25.1159C26.3339 25.5681 26.402 26.0356 26.402 26.5304C26.402 29.3398 24.1189 31.6314 21.3002 31.6314ZM37.923 32.2786C37.923 31.5633 37.344 30.9842 36.6286 30.9842C35.9142 30.9842 35.3342 31.5633 35.3342 32.2786C35.3342 32.9931 35.9142 33.573 36.6286 33.573C37.344 33.573 37.923 32.9931 37.923 32.2786ZM35.8707 17.8953L35.1648 17.4175L35.232 17.3247H25.3282L25.3963 17.4175L24.5021 18.0315L18.9166 21.8977L18.9754 21.9829C19.6737 21.6252 20.4571 21.4209 21.3002 21.4209C22.0837 21.4209 22.833 21.5988 23.4888 21.9148L36.8679 24.8349C40.8695 24.9549 44.08 28.2412 44.08 32.2786C44.08 35.4295 42.1222 38.129 39.3545 39.2276L39.1919 39.2872L36.024 40.4709L27.3124 44.005C26.6055 44.533 25.7199 44.8396 24.7746 44.8396C22.3911 44.8396 20.4486 42.8979 20.4486 40.5126C20.4486 40.4624 20.4486 40.4198 20.4571 40.3687L17.2135 29.5791C16.5654 28.7275 16.1907 27.6707 16.1907 26.5304C16.1907 25.1082 16.7698 23.8223 17.715 22.9026L17.6393 22.7919L11.8477 26.8029L21.7941 52.2399H38.7661L48.7126 26.8114V26.8029L35.8707 17.8953ZM36.6286 30.9842C35.9142 30.9842 35.3342 31.5633 35.3342 32.2786C35.3342 32.9931 35.9142 33.573 36.6286 33.573C37.344 33.573 37.923 32.9931 37.923 32.2786C37.923 31.5633 37.344 30.9842 36.6286 30.9842ZM33.1465 38.8699C30.7868 37.6181 29.1773 35.1314 29.1773 32.2786C29.1773 29.8942 30.3014 27.7652 32.0557 26.4026L26.1968 25.1159C26.3339 25.5681 26.402 26.0356 26.402 26.5304C26.402 29.3398 24.1189 31.6314 21.3002 31.6314C21.0192 31.6314 20.7382 31.605 20.475 31.5633L22.1347 37.0901C22.8671 36.528 23.7791 36.1866 24.7746 36.1866C27.1591 36.1866 29.0922 38.129 29.0922 40.5126V40.522L33.1465 38.8699ZM24.7746 40.2921C24.6469 40.2921 24.5532 40.3857 24.5532 40.5126C24.5532 40.6327 24.6554 40.7349 24.7746 40.7349C24.8939 40.7349 24.9875 40.6327 24.9875 40.5126C24.9875 40.3857 24.8939 40.2921 24.7746 40.2921ZM24.7746 40.2921C24.6469 40.2921 24.5532 40.3857 24.5532 40.5126C24.5532 40.6327 24.6554 40.7349 24.7746 40.7349C24.8939 40.7349 24.9875 40.6327 24.9875 40.5126C24.9875 40.3857 24.8939 40.2921 24.7746 40.2921ZM33.1465 38.8699C30.7868 37.6181 29.1773 35.1314 29.1773 32.2786C29.1773 29.8942 30.3014 27.7652 32.0557 26.4026L26.1968 25.1159C26.3339 25.5681 26.402 26.0356 26.402 26.5304C26.402 29.3398 24.1189 31.6314 21.3002 31.6314C21.0192 31.6314 20.7382 31.605 20.475 31.5633L22.1347 37.0901C22.8671 36.528 23.7791 36.1866 24.7746 36.1866C27.1591 36.1866 29.0922 38.129 29.0922 40.5126V40.522L33.1465 38.8699ZM36.6286 30.9842C35.9142 30.9842 35.3342 31.5633 35.3342 32.2786C35.3342 32.9931 35.9142 33.573 36.6286 33.573C37.344 33.573 37.923 32.9931 37.923 32.2786C37.923 31.5633 37.344 30.9842 36.6286 30.9842ZM36.6286 30.9842C35.9142 30.9842 35.3342 31.5633 35.3342 32.2786C35.3342 32.9931 35.9142 33.573 36.6286 33.573C37.344 33.573 37.923 32.9931 37.923 32.2786C37.923 31.5633 37.344 30.9842 36.6286 30.9842ZM33.1465 38.8699C30.7868 37.6181 29.1773 35.1314 29.1773 32.2786C29.1773 29.8942 30.3014 27.7652 32.0557 26.4026L26.1968 25.1159C26.3339 25.5681 26.402 26.0356 26.402 26.5304C26.402 29.3398 24.1189 31.6314 21.3002 31.6314C21.0192 31.6314 20.7382 31.605 20.475 31.5633L22.1347 37.0901C22.8671 36.528 23.7791 36.1866 24.7746 36.1866C27.1591 36.1866 29.0922 38.129 29.0922 40.5126V40.522L33.1465 38.8699ZM24.7746 40.2921C24.6469 40.2921 24.5532 40.3857 24.5532 40.5126C24.5532 40.6327 24.6554 40.7349 24.7746 40.7349C24.8939 40.7349 24.9875 40.6327 24.9875 40.5126C24.9875 40.3857 24.8939 40.2921 24.7746 40.2921ZM24.7746 40.2921C24.6469 40.2921 24.5532 40.3857 24.5532 40.5126C24.5532 40.6327 24.6554 40.7349 24.7746 40.7349C24.8939 40.7349 24.9875 40.6327 24.9875 40.5126C24.9875 40.3857 24.8939 40.2921 24.7746 40.2921ZM33.1465 38.8699C30.7868 37.6181 29.1773 35.1314 29.1773 32.2786C29.1773 29.8942 30.3014 27.7652 32.0557 26.4026L26.1968 25.1159C26.3339 25.5681 26.402 26.0356 26.402 26.5304C26.402 29.3398 24.1189 31.6314 21.3002 31.6314C21.0192 31.6314 20.7382 31.605 20.475 31.5633L22.1347 37.0901C22.8671 36.528 23.7791 36.1866 24.7746 36.1866C27.1591 36.1866 29.0922 38.129 29.0922 40.5126V40.522L33.1465 38.8699ZM36.6286 30.9842C35.9142 30.9842 35.3342 31.5633 35.3342 32.2786C35.3342 32.9931 35.9142 33.573 36.6286 33.573C37.344 33.573 37.923 32.9931 37.923 32.2786C37.923 31.5633 37.344 30.9842 36.6286 30.9842ZM36.6286 30.9842C35.9142 30.9842 35.3342 31.5633 35.3342 32.2786C35.3342 32.9931 35.9142 33.573 36.6286 33.573C37.344 33.573 37.923 32.9931 37.923 32.2786C37.923 31.5633 37.344 30.9842 36.6286 30.9842ZM24.7746 40.2921C24.6469 40.2921 24.5532 40.3857 24.5532 40.5126C24.5532 40.6327 24.6554 40.7349 24.7746 40.7349C24.8939 40.7349 24.9875 40.6327 24.9875 40.5126C24.9875 40.3857 24.8939 40.2921 24.7746 40.2921ZM33.1465 38.8699C30.7868 37.6181 29.1773 35.1314 29.1773 32.2786C29.1773 29.8942 30.3014 27.7652 32.0557 26.4026L26.1968 25.1159C26.3339 25.5681 26.402 26.0356 26.402 26.5304C26.402 29.3398 24.1189 31.6314 21.3002 31.6314C21.0192 31.6314 20.7382 31.605 20.475 31.5633L22.1347 37.0901C22.8671 36.528 23.7791 36.1866 24.7746 36.1866C27.1591 36.1866 29.0922 38.129 29.0922 40.5126V40.522L33.1465 38.8699ZM36.6286 30.9842C35.9142 30.9842 35.3342 31.5633 35.3342 32.2786C35.3342 32.9931 35.9142 33.573 36.6286 33.573C37.344 33.573 37.923 32.9931 37.923 32.2786C37.923 31.5633 37.344 30.9842 36.6286 30.9842ZM36.6286 30.9842C35.9142 30.9842 35.3342 31.5633 35.3342 32.2786C35.3342 32.9931 35.9142 33.573 36.6286 33.573C37.344 33.573 37.923 32.9931 37.923 32.2786C37.923 31.5633 37.344 30.9842 36.6286 30.9842Z" fill="#D16527"/>
<path fill-rule="evenodd" clip-rule="evenodd" d="M35.7028 39.6792L28.5742 42.5737C28.7531 42.2424 28.8902 41.8848 28.9745 41.5016V41.493L34.2543 39.3462C34.7141 39.5088 35.1995 39.6196 35.7028 39.6792Z" fill="#D16527"/>
<path fill-rule="evenodd" clip-rule="evenodd" d="M34.3994 25.1679C33.931 25.3127 33.4882 25.5077 33.0624 25.747H33.0539L25.824 24.163C25.6281 23.7883 25.3897 23.4468 25.1172 23.1411L34.3994 25.1679Z" fill="#D16527"/>
<path fill-rule="evenodd" clip-rule="evenodd" d="M21.4452 37.7547C21.2068 38.0443 21.0024 38.3679 20.8491 38.7077L18.457 30.7632C18.7798 30.9846 19.1298 31.1719 19.5036 31.2997L21.4452 37.7547Z" fill="#D16527"/>
<path fill-rule="evenodd" clip-rule="evenodd" d="M36.631 34.425C35.4482 34.425 34.485 33.4627 34.485 32.279C34.485 31.0953 35.4482 30.133 36.631 30.133C37.8147 30.133 38.777 31.0953 38.777 32.279C38.777 33.4627 37.8147 34.425 36.631 34.425ZM36.631 25.6792C32.9862 25.6792 30.0312 28.6342 30.0312 32.279C30.0312 35.9238 32.9862 38.8865 36.631 38.8865C40.2766 38.8865 43.2307 35.9238 43.2307 32.279C43.2307 28.6342 40.2766 25.6792 36.631 25.6792Z" fill="#D16527"/>
<path fill-rule="evenodd" clip-rule="evenodd" d="M21.3048 27.8248C20.5903 27.8248 20.0104 27.2449 20.0104 26.5304C20.0104 25.8151 20.5903 25.2275 21.3048 25.2275C22.0201 25.2275 22.5992 25.8151 22.5992 26.5304C22.5992 27.2449 22.0201 27.8248 21.3048 27.8248ZM21.3048 22.2725C18.9553 22.2725 17.0469 24.18 17.0469 26.5304C17.0469 28.8799 18.9553 30.7798 21.3048 30.7798C23.6551 30.7798 25.555 28.8799 25.555 26.5304C25.555 24.18 23.6551 22.2725 21.3048 22.2725Z" fill="#D16527"/>
<path fill-rule="evenodd" clip-rule="evenodd" d="M24.7791 41.5869C24.183 41.5869 23.707 41.1015 23.707 40.5131C23.707 39.9178 24.183 39.4409 24.7791 39.4409C25.3667 39.4409 25.8436 39.9178 25.8436 40.5131C25.8436 41.1015 25.3667 41.5869 24.7791 41.5869ZM24.7791 37.0386C22.8554 37.0386 21.3047 38.597 21.3047 40.5131C21.3047 42.4291 22.8554 43.9884 24.7791 43.9884C26.6952 43.9884 28.2451 42.4291 28.2451 40.5131C28.2451 38.597 26.6952 37.0386 24.7791 37.0386Z" fill="#D16527"/>
<path fill-rule="evenodd" clip-rule="evenodd" d="M40.1535 13.6035H40.81V8.57056H40.1535V13.6035ZM38.9528 13.6035H39.6085V8.57056H38.9528V13.6035ZM37.7605 13.6035H38.4163V8.57056H37.7605V13.6035ZM36.5598 13.6035H37.2155V8.57056H36.5598V13.6035ZM35.3591 13.6035H36.0157V8.57056H35.3591V13.6035ZM34.1584 13.6035H34.8226V8.57056H34.1584V13.6035ZM32.967 13.6035H33.6219V8.57056H32.967V13.6035ZM31.7654 13.6035H32.4211V8.57056H31.7654V13.6035ZM30.5647 13.6035H31.2204V8.57056H30.5647V13.6035ZM29.364 13.6035H30.0282V8.57056H29.364V13.6035ZM28.1717 13.6035H28.8275V8.57056H28.1717V13.6035ZM26.9719 13.6035H27.6267V8.57056H26.9719V13.6035ZM25.7703 13.6035H26.426V8.57056H25.7703V13.6035ZM24.5781 13.6035H25.2346V8.57056H24.5781V13.6035ZM23.3774 13.6035H24.0331V8.57056H23.3774V13.6035ZM22.1775 13.6035H22.8323V8.57056H22.1775V13.6035ZM20.9767 13.6035H21.6401V8.57056H20.9767V13.6035ZM19.7837 13.6035H20.4403V8.57056H19.7837V13.6035ZM19.2812 14.1059H41.2776V8H19.2812V14.1059Z" fill="#D16527"/>
<path fill-rule="evenodd" clip-rule="evenodd" d="M24.6289 16.4102H35.9336V14.7769H24.6289V16.4102Z" fill="#D16527"/>
<path fill-rule="evenodd" clip-rule="evenodd" d="M24.2137 17.1971L24.0272 17.3248L6.40718 29.5528L5.77701 29.9879L3.60548 26.8371C2.53249 25.2786 2.92421 23.1582 4.47494 22.0937L17.3415 13.2278C17.6821 12.9902 18.0568 12.8284 18.4315 12.7339V14.9574H22.6724L24.2137 17.1971Z" fill="#D16527"/>
<path fill-rule="evenodd" clip-rule="evenodd" d="M14.7438 36.5369H11.0402C10.0345 36.5369 9.65983 35.4213 9.65983 35.4213L6.81641 30.2939L11.1246 27.3057L14.7438 36.5369Z" fill="#D16527"/>
<path fill-rule="evenodd" clip-rule="evenodd" d="M56.9567 26.8371L54.7844 29.9879L54.1542 29.5528L49.0277 25.994L36.535 17.3248L36.3477 17.1971L37.889 14.9574H42.1299V12.7339C42.5046 12.8284 42.8793 12.9902 43.2208 13.2278L56.0873 22.0937C57.6372 23.1582 58.0289 25.2786 56.9567 26.8371Z" fill="#D16527"/>
<path fill-rule="evenodd" clip-rule="evenodd" d="M53.7361 30.3029L50.9003 35.421C50.9003 35.421 50.5256 36.5366 49.5208 36.5366H45.8164L49.428 27.313L53.7361 30.3029Z" fill="#D16527"/>
</svg>
