<svg width="60" height="60" viewBox="0 0 60 60" fill="none" xmlns="http://www.w3.org/2000/svg">
<path fill-rule="evenodd" clip-rule="evenodd" d="M43.9933 44.3424L42.4178 45.756C41.992 46.0805 41.4896 46.4552 40.9446 46.8043C40.3144 47.2386 39.6672 47.6125 39.0371 47.9114C36.1843 49.4102 32.9227 50.2106 29.6186 50.2106H29.5675C26.1952 50.2021 22.9933 49.3931 20.0383 47.8092L18.1733 46.6936C17.6283 46.3351 17.2111 46.0294 16.8449 45.7228L16.8278 45.7143L16.6575 45.5951L15.2362 44.2922L15.1417 44.1976C11.1989 40.2642 9.03589 35.0695 9.06229 29.5598C9.06995 28.3591 9.18066 27.2265 9.39355 26.0939C9.51277 25.3181 9.66691 24.6198 9.86192 23.9649C9.98966 23.5221 10.16 23.0529 10.3133 22.6109L10.4069 22.3554C10.705 21.5379 11.003 20.8907 11.3437 20.2946C14.3242 14.3676 20.0638 10.2375 26.6806 9.28284C27.3704 9.17298 28.0857 9.11337 28.784 9.10486C29.014 9.07846 29.2533 9.06994 29.5002 9.06994C29.5002 9.06994 29.7131 9.06228 29.7208 9.06228C30.0529 9.06228 30.3424 9.06994 30.6575 9.11337C31.194 9.12189 31.8582 9.1815 32.7354 9.30072C39.3266 10.3064 45.0415 14.4783 48.0383 20.4649C48.4215 21.2399 48.7025 21.8786 48.9069 22.4823C49.1368 22.9848 49.2994 23.5817 49.4434 24.1352C49.6733 24.8846 49.8351 25.6255 49.9211 26.2897C50.0991 27.3108 50.2013 28.4783 50.2098 29.7046C50.1842 35.2739 47.9786 40.4686 43.9933 44.3424ZM29.7293 5.00024C16.1551 4.94063 5.05049 15.9507 5.00025 29.5258C4.93979 43.117 15.9507 54.2301 29.5419 54.2803C43.1085 54.3323 54.2122 43.3299 54.2803 29.7386C54.3229 16.1559 43.3214 5.05134 29.7293 5.00024Z" fill="#D16527"/>
<path fill-rule="evenodd" clip-rule="evenodd" d="M42.4353 42.3763L35.8441 31.5527L47.4937 26.8852C47.6555 27.8134 47.7151 28.768 47.7066 29.7048C47.6981 34.5077 45.8246 39.004 42.4353 42.3763ZM40.8599 43.8155C40.4426 44.122 40.0509 44.4371 39.574 44.7437C39.5655 44.7437 39.5569 44.7607 39.5484 44.7778L32.7358 35.3508C33.2382 35.0783 33.6981 34.7376 34.1068 34.3459L40.8854 43.7806C40.8769 43.7984 40.8769 43.7984 40.8599 43.8155ZM29.5764 47.7242C26.6811 47.7072 23.9134 47.0259 21.4183 45.723L29.5509 36.1342L37.709 45.7997C35.2054 47.0855 32.4471 47.7242 29.5764 47.7242ZM19.5874 44.65L19.5363 44.5989C19.102 44.3349 18.6847 44.0198 18.3441 43.7312L18.2674 43.6707L25.1141 34.2948C25.5144 34.6942 25.9742 35.0357 26.4682 35.2997L19.5874 44.65ZM16.7099 42.2486C13.3709 38.8346 11.5314 34.3459 11.5485 29.56C11.557 28.6318 11.6507 27.7121 11.7954 26.7668L11.9147 26.8086L23.428 31.5357L16.7099 42.2486ZM12.2638 24.6549C12.3915 24.1695 12.5619 23.6841 12.7407 23.2072C12.7492 23.1979 12.7577 23.1561 12.7747 23.1391L23.8197 26.7839C23.5643 27.2778 23.3854 27.8134 23.2662 28.3678L12.2391 24.723C12.2468 24.706 12.2561 24.6796 12.2638 24.6549ZM26.7918 11.7875L25.8814 24.3398V24.3483H25.8721L13.6519 21.2316C16.3173 16.1902 21.1884 12.6732 26.7918 11.7875ZM25.31 29.1002C24.7905 29.1002 24.3648 28.6829 24.3648 28.1626C24.3648 27.6354 24.7905 27.2182 25.31 27.2182C25.8295 27.2182 26.2553 27.6354 26.2553 28.1626C26.2553 28.6829 25.8295 29.1002 25.31 29.1002ZM26.9459 32.3277C27.4645 32.3277 27.8903 32.7449 27.8903 33.2721C27.8903 33.7924 27.4645 34.2096 26.9459 34.2096C26.4256 34.2096 25.9998 33.7924 25.9998 33.2721C25.9998 32.7449 26.4256 32.3277 26.9459 32.3277ZM29.636 27.0215C31.0837 27.0215 32.2589 28.1975 32.2589 29.6452C32.2589 31.0843 31.0837 32.2595 29.636 32.2595C28.1969 32.2595 27.0217 31.0843 27.0217 29.6452C27.0217 28.1975 28.1969 27.0215 29.636 27.0215ZM29.636 24.0247C30.164 24.0247 30.5813 24.442 30.5813 24.9691C30.5813 25.4895 30.164 25.9067 29.636 25.9067C29.1166 25.9067 28.6908 25.4895 28.6908 24.9691C28.6908 24.442 29.1166 24.0247 29.636 24.0247ZM28.8449 11.5917C28.9122 11.5746 28.9803 11.5661 29.0399 11.5661C29.2188 11.5568 29.3891 11.5568 29.5764 11.5568H29.8319C30.0022 11.5568 30.1981 11.5568 30.5047 11.5917H30.5387L30.4961 23.2072C30.2151 23.1647 29.9256 23.1476 29.636 23.1476C29.3465 23.1476 29.0655 23.1647 28.7845 23.2072L28.8449 11.5917ZM33.2893 33.2721C33.2893 33.7924 32.872 34.2096 32.3441 34.2096C31.8255 34.2096 31.3997 33.7924 31.3997 33.2721C31.3997 32.7449 31.8255 32.3277 32.3441 32.3277C32.872 32.3277 33.2893 32.7449 33.2893 33.2721ZM34.9414 28.1626C34.9414 28.6829 34.5156 29.1002 33.9961 29.1002C33.4767 29.1002 33.0509 28.6829 33.0509 28.1626C33.0509 27.6354 33.4767 27.2182 33.9961 27.2182C34.5156 27.2182 34.9414 27.6354 34.9414 28.1626ZM45.7054 21.3423L33.4426 24.3739L32.6081 11.8216C38.2123 12.7328 43.0569 16.2924 45.7054 21.3423ZM46.591 23.3946C46.7869 23.8629 46.941 24.3824 47.0594 24.8244C47.0594 24.8423 47.0594 24.8423 47.0679 24.8593L36.0059 28.4027C35.9037 27.8483 35.7248 27.3204 35.4864 26.8264L46.5484 23.266C46.5655 23.3179 46.5655 23.3426 46.591 23.3946ZM49.0776 26.3913C48.9925 25.7109 48.8221 25.0126 48.6178 24.3483C48.4815 23.8119 48.3367 23.2754 48.1068 22.7636C47.8769 22.1087 47.5873 21.47 47.2808 20.8475C44.4706 15.2364 39.0545 11.1233 32.6251 10.1431C31.9353 10.0503 31.237 9.97367 30.5557 9.95664C30.2747 9.92173 30.0107 9.91406 29.7297 9.91406C29.4231 9.92173 29.1336 9.91406 28.8526 9.95664C28.1628 9.96516 27.4645 10.0248 26.8003 10.127C20.3623 11.0543 14.9037 15.1172 12.085 20.7206C11.7273 21.3423 11.4548 21.9724 11.2078 22.6367C11.029 23.1476 10.8331 23.6841 10.6799 24.2121C10.484 24.8678 10.3401 25.5491 10.2285 26.2465C10.0241 27.3382 9.92196 28.4274 9.91429 29.56C9.88789 35.0433 12.1446 40.0081 15.7468 43.5941L15.8149 43.6622L17.237 44.9651L17.2966 44.9907C17.7139 45.3483 18.1738 45.6719 18.6166 45.9615L20.439 47.06C23.1555 48.5162 26.2467 49.3507 29.5679 49.3593C32.8465 49.3678 35.9462 48.5758 38.6713 47.1451C39.3015 46.8471 39.9155 46.4809 40.4852 46.0892C40.9621 45.7826 41.4134 45.4505 41.8485 45.1175L43.3976 43.7312C47.0423 40.1877 49.3331 35.2154 49.3586 29.7133C49.3501 28.5884 49.265 27.4736 49.0776 26.3913Z" fill="#D16527"/>
</svg>
